<svg width="335" height="293" viewBox="0 0 335 293" fill="none" xmlns="http://www.w3.org/2000/svg">
<g filter="url(#filter0_f_1608_100148)">
<ellipse cx="165.658" cy="146.658" rx="60.5877" ry="124.698" transform="rotate(45 165.658 146.658)" fill="#C478FF" fill-opacity="0.16"/>
</g>
<g opacity="0.48">
<path opacity="0.11" d="M56.1054 166.93C56.3656 166.957 56.5979 166.767 56.6243 166.507C56.6507 166.246 56.4612 166.014 56.201 165.987C55.9408 165.961 55.7085 166.151 55.6821 166.411C55.6557 166.671 55.8452 166.904 56.1054 166.93Z" fill="white"/>
<path d="M57.3708 169.677C57.5659 169.696 57.7401 169.554 57.7599 169.359C57.7797 169.164 57.6375 168.989 57.4425 168.969C57.2474 168.95 57.0732 169.092 57.0534 169.287C57.0336 169.482 57.1757 169.657 57.3708 169.677Z" fill="white"/>
<path d="M65.6364 165.518C65.8315 165.538 66.0057 165.396 66.0255 165.201C66.0453 165.005 65.9032 164.831 65.7081 164.811C65.513 164.791 65.3388 164.934 65.319 165.129C65.2992 165.324 65.4414 165.499 65.6364 165.518Z" fill="white"/>
<path d="M45.6814 163.013C45.8764 163.032 46.0506 162.89 46.0704 162.695C46.0902 162.5 45.9481 162.325 45.753 162.305C45.5579 162.286 45.3837 162.428 45.364 162.623C45.3442 162.818 45.4863 162.993 45.6814 163.013Z" fill="white"/>
<path opacity="0.11" d="M33.457 167.487C33.7172 167.514 33.9495 167.324 33.9759 167.063C34.0022 166.803 33.8127 166.57 33.5525 166.544C33.2923 166.518 33.06 166.707 33.0336 166.968C33.0073 167.228 33.1968 167.461 33.457 167.487Z" fill="white"/>
<path d="M29.5112 161.847C29.6412 161.86 29.7573 161.765 29.7704 161.635C29.7836 161.505 29.6889 161.389 29.559 161.375C29.429 161.362 29.3129 161.457 29.2997 161.587C29.2866 161.717 29.3812 161.833 29.5112 161.847Z" fill="white"/>
<path d="M54.4624 176.05C54.5924 176.063 54.7084 175.968 54.7216 175.838C54.7348 175.708 54.6401 175.592 54.5101 175.579C54.3801 175.565 54.2641 175.66 54.2509 175.79C54.2377 175.92 54.3324 176.037 54.4624 176.05Z" fill="white"/>
<path d="M105.775 181.265C105.905 181.278 106.021 181.183 106.034 181.053C106.047 180.923 105.953 180.807 105.823 180.793C105.693 180.78 105.577 180.875 105.563 181.005C105.55 181.135 105.645 181.251 105.775 181.265Z" fill="white"/>
<path opacity="0.11" d="M27.0796 164.694C27.2096 164.707 27.3256 164.613 27.3388 164.483C27.352 164.353 27.2573 164.236 27.1273 164.223C26.9973 164.21 26.8813 164.305 26.8681 164.435C26.8549 164.565 26.9496 164.681 27.0796 164.694Z" fill="white"/>
<path opacity="0.11" d="M53.1362 184.489C53.2662 184.502 53.3823 184.408 53.3954 184.278C53.4086 184.147 53.3139 184.031 53.184 184.018C53.054 184.005 52.9379 184.1 52.9247 184.23C52.9116 184.36 53.0062 184.476 53.1362 184.489Z" fill="white"/>
<path opacity="0.11" d="M98.564 186.724C98.6939 186.737 98.81 186.642 98.8232 186.512C98.8364 186.382 98.7417 186.266 98.6117 186.252C98.4817 186.239 98.3657 186.334 98.3525 186.464C98.3393 186.594 98.434 186.71 98.564 186.724Z" fill="white"/>
<path d="M43.5308 150.173C43.6607 150.186 43.7768 150.091 43.79 149.961C43.8032 149.831 43.7085 149.715 43.5785 149.702C43.4485 149.688 43.3325 149.783 43.3193 149.913C43.3061 150.043 43.4008 150.16 43.5308 150.173Z" fill="white"/>
<path d="M79.8276 153.386C79.9576 153.399 80.0737 153.304 80.0868 153.174C80.1 153.044 80.0053 152.928 79.8754 152.915C79.7454 152.901 79.6293 152.996 79.6161 153.126C79.603 153.256 79.6976 153.373 79.8276 153.386Z" fill="white"/>
<path d="M25.3315 170.231C25.4615 170.245 25.5776 170.15 25.5908 170.02C25.6039 169.89 25.5093 169.773 25.3793 169.76C25.2493 169.747 25.1332 169.842 25.1201 169.972C25.1069 170.102 25.2016 170.218 25.3315 170.231Z" fill="white"/>
<path opacity="0.3" d="M8.85498 168.558C8.98496 168.571 9.10102 168.476 9.1142 168.346C9.12738 168.216 9.0327 168.1 8.90271 168.086C8.77273 168.073 8.65667 168.168 8.64349 168.298C8.63031 168.428 8.72499 168.544 8.85498 168.558Z" fill="white"/>
<path opacity="0.3" d="M47.1968 156.263C47.3268 156.276 47.4428 156.181 47.456 156.051C47.4692 155.921 47.3745 155.805 47.2445 155.791C47.1145 155.778 46.9985 155.873 46.9853 156.003C46.9721 156.133 47.0668 156.249 47.1968 156.263Z" fill="white"/>
<path opacity="0.3" d="M28.8784 175.118C29.0084 175.131 29.1244 175.037 29.1376 174.906C29.1508 174.776 29.0561 174.66 28.9261 174.647C28.7962 174.634 28.6801 174.729 28.6669 174.859C28.6537 174.989 28.7484 175.105 28.8784 175.118Z" fill="white"/>
<path opacity="0.3" d="M0.16161 174.581C0.291592 174.594 0.407651 174.499 0.420834 174.369C0.434017 174.239 0.33933 174.123 0.209348 174.11C0.0793662 174.097 -0.0366868 174.191 -0.0498697 174.322C-0.0630525 174.452 0.0316288 174.568 0.16161 174.581Z" fill="white"/>
<path opacity="0.11" d="M104.488 158.749C104.618 158.762 104.734 158.667 104.747 158.537C104.76 158.407 104.666 158.291 104.536 158.278C104.406 158.265 104.289 158.359 104.276 158.489C104.263 158.62 104.358 158.736 104.488 158.749Z" fill="white"/>
<path opacity="0.3" d="M74.2578 177.823C74.5179 177.849 74.7502 177.66 74.7766 177.399C74.803 177.139 74.6135 176.906 74.3533 176.88C74.0931 176.853 73.8608 177.043 73.8344 177.304C73.808 177.564 73.9976 177.797 74.2578 177.823Z" fill="white"/>
<path opacity="0.11" d="M88.8632 172.163C89.1234 172.189 89.3557 172 89.3821 171.739C89.4085 171.479 89.219 171.246 88.9588 171.22C88.6986 171.193 88.4663 171.383 88.4399 171.643C88.4135 171.904 88.603 172.136 88.8632 172.163Z" fill="white"/>
<path d="M89.5817 163.903C89.7768 163.923 89.951 163.781 89.9708 163.586C89.9906 163.39 89.8485 163.216 89.6534 163.196C89.4583 163.176 89.2841 163.318 89.2643 163.514C89.2446 163.709 89.3867 163.883 89.5817 163.903Z" fill="white"/>
<path d="M70.8337 187.003C71.0288 187.023 71.203 186.88 71.2228 186.685C71.2426 186.49 71.1004 186.315 70.9054 186.296C70.7103 186.276 70.5361 186.418 70.5163 186.613C70.4965 186.809 70.6386 186.983 70.8337 187.003Z" fill="white"/>
<path d="M77.8083 167.47C78.0034 167.489 78.1776 167.347 78.1974 167.152C78.2171 166.957 78.075 166.782 77.88 166.762C77.6849 166.743 77.5107 166.885 77.4909 167.08C77.4711 167.275 77.6132 167.45 77.8083 167.47Z" fill="white"/>
<path d="M35.0837 180.749C35.2788 180.769 35.453 180.627 35.4728 180.431C35.4925 180.236 35.3504 180.062 35.1554 180.042C34.9603 180.022 34.7861 180.164 34.7663 180.359C34.7465 180.555 34.8886 180.729 35.0837 180.749Z" fill="white"/>
<path d="M93.3708 196.911C93.5659 196.931 93.7401 196.789 93.7599 196.593C93.7797 196.398 93.6376 196.224 93.4425 196.204C93.2474 196.184 93.0732 196.326 93.0534 196.522C93.0336 196.717 93.1757 196.891 93.3708 196.911Z" fill="white"/>
<path opacity="0.3" d="M8.15033 152.057C8.41051 152.084 8.64283 151.894 8.66922 151.634C8.6956 151.373 8.50607 151.141 8.24589 151.114C7.9857 151.088 7.75339 151.278 7.727 151.538C7.70061 151.798 7.89014 152.031 8.15033 152.057Z" fill="white"/>
<path opacity="0.11" d="M2.27142 146.696C2.5316 146.723 2.76392 146.533 2.79031 146.272C2.8167 146.012 2.62717 145.779 2.36698 145.753C2.1068 145.727 1.87448 145.916 1.84809 146.177C1.82171 146.437 2.01124 146.67 2.27142 146.696Z" fill="white"/>
<path d="M13.5954 162.849C13.7905 162.868 13.9647 162.726 13.9845 162.531C14.0043 162.336 13.8622 162.161 13.6671 162.141C13.472 162.122 13.2978 162.264 13.278 162.459C13.2582 162.654 13.4003 162.829 13.5954 162.849Z" fill="white"/>
<path d="M65.3725 98.4873C65.5025 98.5005 65.6186 98.4057 65.6318 98.2756C65.645 98.1455 65.5503 98.0293 65.4203 98.0161C65.2903 98.0029 65.1742 98.0977 65.1611 98.2278C65.1479 98.3579 65.2426 98.4741 65.3725 98.4873Z" fill="white"/>
<path opacity="0.11" d="M63.1323 85.4013C63.2623 85.4145 63.3784 85.3198 63.3915 85.1897C63.4047 85.0595 63.31 84.9434 63.1801 84.9302C63.0501 84.917 62.934 85.0117 62.9208 85.1418C62.9077 85.2719 63.0023 85.3881 63.1323 85.4013Z" fill="white"/>
<path opacity="0.11" d="M52.4643 89.7939C52.5943 89.8071 52.7104 89.7124 52.7236 89.5822C52.7368 89.4521 52.6421 89.3359 52.5121 89.3227C52.3821 89.3095 52.266 89.4043 52.2529 89.5344C52.2397 89.6645 52.3344 89.7807 52.4643 89.7939Z" fill="white"/>
<path opacity="0.11" d="M58.7983 104.726C58.9283 104.739 59.0444 104.644 59.0576 104.514C59.0707 104.384 58.976 104.268 58.8461 104.254C58.7161 104.241 58.6 104.336 58.5868 104.466C58.5737 104.596 58.6683 104.712 58.7983 104.726Z" fill="white"/>
<path opacity="0.3" d="M76.7964 93.6963C76.9264 93.7095 77.0424 93.6147 77.0556 93.4846C77.0688 93.3545 76.9741 93.2383 76.8441 93.2251C76.7141 93.2119 76.5981 93.3066 76.5849 93.4368C76.5717 93.5669 76.6664 93.6831 76.7964 93.6963Z" fill="white"/>
<path opacity="0.3" d="M97.5425 104.852C97.6725 104.866 97.7885 104.771 97.8017 104.641C97.8149 104.511 97.7202 104.395 97.5902 104.381C97.4602 104.368 97.3442 104.463 97.331 104.593C97.3178 104.723 97.4125 104.839 97.5425 104.852Z" fill="white"/>
<path opacity="0.11" d="M79.7261 88.2783C79.856 88.2915 79.9721 88.1967 79.9853 88.0666C79.9985 87.9365 79.9038 87.8203 79.7738 87.8071C79.6438 87.7939 79.5278 87.8887 79.5146 88.0188C79.5014 88.1489 79.5961 88.2651 79.7261 88.2783Z" fill="white"/>
<path opacity="0.3" d="M88.8472 110.874C88.9771 110.887 89.0932 110.792 89.1064 110.662C89.1196 110.532 89.0249 110.416 88.8949 110.403C88.7649 110.39 88.6489 110.484 88.6357 110.614C88.6225 110.745 88.7172 110.861 88.8472 110.874Z" fill="white"/>
<path opacity="0.3" d="M83.6245 94.3896C83.7545 94.4028 83.8705 94.3081 83.8837 94.1779C83.8969 94.0478 83.8022 93.9317 83.6722 93.9184C83.5423 93.9052 83.4262 94 83.413 94.1301C83.3998 94.2602 83.4945 94.3764 83.6245 94.3896Z" fill="white"/>
<path d="M237.183 135.948C237.378 135.968 237.553 135.826 237.572 135.63C237.592 135.435 237.45 135.261 237.255 135.241C237.06 135.221 236.886 135.363 236.866 135.559C236.846 135.754 236.988 135.928 237.183 135.948Z" fill="white"/>
<path d="M84.8396 116.421C85.0347 116.441 85.2088 116.298 85.2286 116.103C85.2484 115.908 85.1063 115.733 84.9112 115.714C84.7161 115.694 84.5419 115.836 84.5222 116.031C84.5024 116.227 84.6445 116.401 84.8396 116.421Z" fill="white"/>
<path d="M54.0857 107.819C54.2807 107.839 54.4549 107.697 54.4747 107.502C54.4945 107.306 54.3524 107.132 54.1573 107.112C53.9622 107.092 53.788 107.234 53.7683 107.43C53.7485 107.625 53.8906 107.799 54.0857 107.819Z" fill="white"/>
<path d="M51.0388 97.9852C51.2339 98.0051 51.4081 97.8628 51.4278 97.6675C51.4476 97.4723 51.3055 97.2979 51.1104 97.2781C50.9154 97.2583 50.7412 97.4005 50.7214 97.5958C50.7016 97.791 50.8437 97.9654 51.0388 97.9852Z" fill="white"/>
<path d="M246.052 123.515C246.248 123.534 246.422 123.392 246.441 123.197C246.461 123.002 246.319 122.827 246.124 122.807C245.929 122.788 245.755 122.93 245.735 123.125C245.715 123.32 245.857 123.495 246.052 123.515Z" fill="white"/>
<path d="M253.015 111.126C253.21 111.146 253.385 111.003 253.404 110.808C253.424 110.613 253.282 110.439 253.087 110.419C252.892 110.399 252.718 110.541 252.698 110.736C252.678 110.932 252.82 111.106 253.015 111.126Z" fill="white"/>
<path opacity="0.3" d="M243.213 119.893C243.473 119.92 243.705 119.73 243.732 119.47C243.758 119.209 243.569 118.977 243.308 118.95C243.048 118.924 242.816 119.113 242.79 119.374C242.763 119.634 242.953 119.867 243.213 119.893Z" fill="white"/>
<path opacity="0.3" d="M80.121 107.846C80.3812 107.873 80.6135 107.683 80.6399 107.423C80.6663 107.162 80.4768 106.93 80.2166 106.903C79.9564 106.877 79.7241 107.067 79.6977 107.327C79.6713 107.587 79.8608 107.82 80.121 107.846Z" fill="white"/>
<path opacity="0.3" d="M62.3671 92.9441C62.6273 92.9706 62.8596 92.7809 62.886 92.5204C62.9124 92.26 62.7229 92.0274 62.4627 92.001C62.2025 91.9746 61.9702 92.1643 61.9438 92.4247C61.9174 92.6851 62.1069 92.9177 62.3671 92.9441Z" fill="white"/>
<path opacity="0.11" d="M234.279 111.843C234.539 111.869 234.772 111.679 234.798 111.419C234.825 111.158 234.635 110.926 234.375 110.899C234.115 110.873 233.882 111.063 233.856 111.323C233.83 111.584 234.019 111.816 234.279 111.843Z" fill="white"/>
<path opacity="0.3" d="M96.8359 88.3504C97.0961 88.3768 97.3284 88.1871 97.3548 87.9267C97.3812 87.6662 97.1916 87.4337 96.9314 87.4072C96.6712 87.3808 96.4389 87.5705 96.4125 87.8309C96.3862 88.0914 96.5757 88.3239 96.8359 88.3504Z" fill="white"/>
<path opacity="0.11" d="M90.9609 82.991C91.2211 83.0174 91.4534 82.8278 91.4798 82.5673C91.5061 82.3069 91.3166 82.0743 91.0564 82.0479C90.7962 82.0214 90.5639 82.2111 90.5375 82.4716C90.5112 82.732 90.7007 82.9646 90.9609 82.991Z" fill="white"/>
<path opacity="0.3" d="M87.5507 97.8855C87.8109 97.912 88.0432 97.7223 88.0696 97.4618C88.096 97.2014 87.9065 96.9688 87.6463 96.9424C87.3861 96.916 87.1538 97.1057 87.1274 97.3661C87.101 97.6266 87.2905 97.8591 87.5507 97.8855Z" fill="white"/>
<path opacity="0.11" d="M264.814 152.729C265.075 152.756 265.307 152.566 265.333 152.306C265.36 152.045 265.17 151.813 264.91 151.786C264.65 151.76 264.417 151.949 264.391 152.21C264.365 152.47 264.554 152.703 264.814 152.729Z" fill="white"/>
<path d="M266.08 155.477C266.275 155.497 266.449 155.355 266.469 155.16C266.489 154.964 266.347 154.79 266.151 154.77C265.956 154.75 265.782 154.893 265.762 155.088C265.743 155.283 265.885 155.458 266.08 155.477Z" fill="white"/>
<path d="M274.349 151.317C274.544 151.337 274.719 151.195 274.738 151C274.758 150.804 274.616 150.63 274.421 150.61C274.226 150.59 274.052 150.733 274.032 150.928C274.012 151.123 274.154 151.297 274.349 151.317Z" fill="white"/>
<path d="M254.39 148.811C254.585 148.831 254.76 148.689 254.779 148.494C254.799 148.298 254.657 148.124 254.462 148.104C254.267 148.084 254.093 148.227 254.073 148.422C254.053 148.617 254.195 148.792 254.39 148.811Z" fill="white"/>
<path opacity="0.11" d="M242.164 153.284C242.424 153.31 242.656 153.121 242.683 152.86C242.709 152.6 242.52 152.367 242.26 152.341C241.999 152.314 241.767 152.504 241.741 152.765C241.714 153.025 241.904 153.258 242.164 153.284Z" fill="white"/>
<path d="M238.218 147.645C238.348 147.659 238.464 147.564 238.477 147.434C238.491 147.304 238.396 147.188 238.266 147.174C238.136 147.161 238.02 147.256 238.007 147.386C237.994 147.516 238.088 147.632 238.218 147.645Z" fill="white"/>
<path d="M263.173 161.849C263.303 161.862 263.419 161.767 263.433 161.637C263.446 161.507 263.351 161.391 263.221 161.377C263.091 161.364 262.975 161.459 262.962 161.589C262.949 161.719 263.043 161.835 263.173 161.849Z" fill="white"/>
<path d="M314.486 167.063C314.616 167.077 314.732 166.982 314.745 166.852C314.758 166.722 314.664 166.605 314.534 166.592C314.404 166.579 314.288 166.674 314.274 166.804C314.261 166.934 314.356 167.05 314.486 167.063Z" fill="white"/>
<path opacity="0.11" d="M235.792 150.493C235.922 150.506 236.039 150.412 236.052 150.281C236.065 150.151 235.97 150.035 235.84 150.022C235.71 150.009 235.594 150.104 235.581 150.234C235.568 150.364 235.663 150.48 235.792 150.493Z" fill="white"/>
<path opacity="0.11" d="M261.843 170.284C261.973 170.297 262.089 170.203 262.102 170.072C262.116 169.942 262.021 169.826 261.891 169.813C261.761 169.8 261.645 169.895 261.632 170.025C261.619 170.155 261.713 170.271 261.843 170.284Z" fill="white"/>
<path opacity="0.11" d="M307.275 172.52C307.405 172.534 307.521 172.439 307.534 172.309C307.547 172.179 307.453 172.063 307.323 172.049C307.193 172.036 307.077 172.131 307.063 172.261C307.05 172.391 307.145 172.507 307.275 172.52Z" fill="white"/>
<path d="M252.242 135.974C252.372 135.987 252.488 135.892 252.501 135.762C252.514 135.632 252.419 135.516 252.289 135.502C252.159 135.489 252.043 135.584 252.03 135.714C252.017 135.844 252.112 135.96 252.242 135.974Z" fill="white"/>
<path d="M288.537 139.185C288.667 139.198 288.783 139.103 288.796 138.973C288.809 138.843 288.714 138.727 288.584 138.713C288.454 138.7 288.338 138.795 288.325 138.925C288.312 139.055 288.407 139.171 288.537 139.185Z" fill="white"/>
<path d="M234.039 156.03C234.169 156.043 234.285 155.949 234.298 155.819C234.311 155.688 234.216 155.572 234.086 155.559C233.956 155.546 233.84 155.641 233.827 155.771C233.814 155.901 233.909 156.017 234.039 156.03Z" fill="white"/>
<path opacity="0.3" d="M255.908 142.061C256.038 142.075 256.154 141.98 256.167 141.85C256.18 141.72 256.085 141.604 255.955 141.59C255.825 141.577 255.709 141.672 255.696 141.802C255.683 141.932 255.778 142.048 255.908 142.061Z" fill="white"/>
<path opacity="0.3" d="M237.589 160.917C237.719 160.93 237.835 160.835 237.849 160.705C237.862 160.575 237.767 160.459 237.637 160.446C237.507 160.433 237.391 160.527 237.378 160.657C237.365 160.788 237.459 160.904 237.589 160.917Z" fill="white"/>
<path opacity="0.11" d="M313.197 144.548C313.327 144.561 313.443 144.466 313.456 144.336C313.469 144.206 313.374 144.09 313.244 144.077C313.115 144.063 312.998 144.158 312.985 144.288C312.972 144.418 313.067 144.535 313.197 144.548Z" fill="white"/>
<path opacity="0.3" d="M282.969 163.622C283.229 163.648 283.461 163.459 283.488 163.198C283.514 162.938 283.324 162.705 283.064 162.679C282.804 162.652 282.572 162.842 282.545 163.102C282.519 163.363 282.709 163.595 282.969 163.622Z" fill="white"/>
<path opacity="0.11" d="M297.572 157.964C297.832 157.99 298.065 157.8 298.091 157.54C298.117 157.28 297.928 157.047 297.668 157.021C297.408 156.994 297.175 157.184 297.149 157.444C297.122 157.705 297.312 157.937 297.572 157.964Z" fill="white"/>
<path d="M298.291 149.702C298.486 149.722 298.66 149.58 298.68 149.384C298.7 149.189 298.557 149.015 298.362 148.995C298.167 148.975 297.993 149.117 297.973 149.313C297.954 149.508 298.096 149.682 298.291 149.702Z" fill="white"/>
<path d="M279.545 172.8C279.74 172.82 279.914 172.677 279.934 172.482C279.953 172.287 279.811 172.112 279.616 172.093C279.421 172.073 279.247 172.215 279.227 172.41C279.207 172.605 279.35 172.78 279.545 172.8Z" fill="white"/>
<path d="M286.515 153.268C286.71 153.288 286.885 153.146 286.904 152.951C286.924 152.755 286.782 152.581 286.587 152.561C286.392 152.541 286.218 152.684 286.198 152.879C286.178 153.074 286.32 153.249 286.515 153.268Z" fill="white"/>
<path d="M243.797 166.548C243.992 166.568 244.166 166.425 244.186 166.23C244.205 166.035 244.063 165.86 243.868 165.841C243.673 165.821 243.499 165.963 243.479 166.158C243.459 166.354 243.602 166.528 243.797 166.548Z" fill="white"/>
<path d="M302.08 182.71C302.275 182.73 302.449 182.587 302.469 182.392C302.489 182.197 302.347 182.023 302.151 182.003C301.956 181.983 301.782 182.125 301.762 182.32C301.743 182.516 301.885 182.69 302.08 182.71Z" fill="white"/>
<path opacity="0.3" d="M317.684 151.909C317.944 151.935 318.176 151.746 318.202 151.485C318.229 151.225 318.039 150.992 317.779 150.966C317.519 150.939 317.287 151.129 317.26 151.39C317.234 151.65 317.423 151.883 317.684 151.909Z" fill="white"/>
<path d="M319.381 135.177C319.641 135.203 319.873 135.013 319.9 134.753C319.926 134.492 319.737 134.26 319.476 134.233C319.216 134.207 318.984 134.397 318.957 134.657C318.931 134.918 319.121 135.15 319.381 135.177Z" fill="white"/>
<path d="M329.281 158.327C329.476 158.347 329.65 158.205 329.67 158.009C329.69 157.814 329.548 157.64 329.353 157.62C329.158 157.6 328.983 157.742 328.964 157.938C328.944 158.133 329.086 158.307 329.281 158.327Z" fill="white"/>
</g>
<g filter="url(#filter1_bd_1608_100148)">
<rect x="110.236" y="91" width="113.764" height="113.764" rx="32" transform="rotate(0.118781 110.236 91)" fill="#8372A2" fill-opacity="0.16" shape-rendering="crispEdges"/>
<rect x="110.682" y="91.4482" width="112.87" height="112.87" rx="31.5527" transform="rotate(0.118781 110.682 91.4482)" stroke="url(#paint0_linear_1608_100148)" stroke-width="0.894501" shape-rendering="crispEdges"/>
</g>
<g filter="url(#filter2_b_1608_100148)">
<rect x="138.704" y="119.82" width="48.5505" height="52.5964" rx="8" fill="url(#paint1_linear_1608_100148)"/>
</g>
<g filter="url(#filter3_b_1608_100148)">
<rect x="138.704" y="131.958" width="56.6423" height="44.5046" rx="8" fill="url(#paint2_linear_1608_100148)" fill-opacity="0.6"/>
<rect x="139.01" y="132.264" width="56.0304" height="43.8927" rx="7.69405" stroke="url(#paint3_linear_1608_100148)" stroke-width="0.611895"/>
</g>
<g filter="url(#filter4_b_1608_100148)">
<rect x="175.117" y="144.095" width="24.2753" height="16.1835" rx="4" fill="url(#paint4_linear_1608_100148)"/>
</g>
<g filter="url(#filter5_b_1608_100148)">
<rect x="187.255" y="148.141" width="8.09175" height="8.09175" rx="4.04588" transform="rotate(90 187.255 148.141)" fill="white"/>
</g>
<g filter="url(#filter6_f_1608_100148)">
<ellipse cx="165.658" cy="146.658" rx="25.7386" ry="52.9738" transform="rotate(45 165.658 146.658)" fill="#C478FF" fill-opacity="0.24"/>
</g>
<g filter="url(#filter7_f_1608_100148)">
<rect x="82" y="145" width="88" height="88" rx="44" fill="url(#paint5_radial_1608_100148)"/>
</g>
<g filter="url(#filter8_b_1608_100148)">
<rect x="78.6028" y="222.858" width="55.3711" height="20.135" rx="10.0675" transform="rotate(-45 78.6028 222.858)" fill="url(#paint6_linear_1608_100148)" fill-opacity="0.16"/>
</g>
<g filter="url(#filter9_b_1608_100148)">
<path d="M151.518 214.518C137.618 228.418 114.854 228.192 100.675 214.012C86.4949 199.832 86.2684 177.069 100.169 163.169C114.069 149.268 136.832 149.495 151.012 163.675C165.192 177.854 165.418 200.618 151.518 214.518Z" fill="#E2D5FF" fill-opacity="0.16"/>
</g>
<path d="M134.153 198.591H109.79L123.024 175.483C123.562 174.553 124.53 173.949 125.606 173.949H125.622C125.991 173.949 126.36 173.965 126.728 173.98L114.032 196.144H132.754L134.153 198.591Z" fill="url(#paint7_linear_1608_100148)"/>
<path d="M139.625 201.781H113.125C112.034 201.781 111.019 201.177 110.481 200.217C110.312 199.923 110.159 199.613 110.005 199.303H135.398L126.021 182.963L127.42 180.516L139.625 201.781Z" fill="url(#paint8_linear_1608_100148)"/>
<path d="M140.67 200.372C140.501 200.666 140.316 200.96 140.132 201.239L127.436 179.091L118.075 195.431H115.262L127.451 174.166L140.701 197.274C141.254 198.235 141.223 199.412 140.67 200.372Z" fill="url(#paint9_linear_1608_100148)"/>
<g filter="url(#filter10_b_1608_100148)">
<path d="M105.002 209.685C116.25 220.934 134.686 220.673 146.18 209.179C157.673 197.686 157.934 179.249 146.686 168.001C135.437 156.753 117.001 157.014 105.507 168.507C94.0137 180.001 93.7533 198.437 105.002 209.685Z" stroke="url(#paint10_linear_1608_100148)" stroke-width="2"/>
</g>
<g filter="url(#filter11_bi_1608_100148)">
<circle cx="247" cy="205" r="23" fill="#8372A2" fill-opacity="0.16"/>
</g>
<path d="M256.948 202.453C257.364 199.718 255.245 198.25 252.351 197.272L253.29 193.572L250.996 193.01L250.077 196.611C249.477 196.466 248.857 196.327 248.244 196.186L249.163 192.561L246.869 192L245.933 195.697L241.308 194.574L240.695 196.981C240.695 196.981 242.398 197.361 242.361 197.386C243.293 197.615 243.46 198.221 243.43 198.697L240.854 208.833C240.745 209.114 240.454 209.527 239.805 209.37C239.829 209.402 238.139 208.958 238.139 208.958L237 211.54L241.617 212.687L240.67 216.432L242.96 216.989L243.899 213.288C244.528 213.453 245.132 213.61 245.728 213.753L244.789 217.439L247.083 218L248.034 214.263C251.945 214.992 254.885 214.7 256.121 211.227C257.121 208.428 256.072 206.816 254.014 205.762C255.513 205.421 256.644 204.455 256.942 202.454L256.948 202.453ZM251.703 209.671C250.993 212.466 246.196 210.954 244.641 210.577L245.902 205.617C247.457 205.998 252.442 206.752 251.703 209.671ZM252.414 202.414C251.769 204.959 247.776 203.665 246.482 203.348L247.621 198.849C248.915 199.166 253.087 199.759 252.414 202.414Z" fill="url(#paint11_linear_1608_100148)"/>
<g filter="url(#filter12_f_1608_100148)">
<circle cx="247" cy="205" r="11.5" fill="url(#paint12_radial_1608_100148)" fill-opacity="0.24"/>
</g>
<g filter="url(#filter13_bi_1608_100148)">
<circle cx="95.5" cy="87.5" r="14.5" fill="#8372A2" fill-opacity="0.16"/>
</g>
<path d="M90 87.1679L90.0011 87.1686L90 87.1691L95.4989 90.4352L100.998 87.1691L100.997 87.1686L100.998 87.1679L95.4989 78.0004L90 87.1679Z" fill="url(#paint13_linear_1608_100148)"/>
<path d="M95.4989 96L101 88.2136L95.4988 91.4789L90 88.2136L95.4989 96Z" fill="url(#paint14_linear_1608_100148)"/>
<g filter="url(#filter14_f_1608_100148)">
<circle cx="95.5" cy="87.5" r="7.25" fill="url(#paint15_radial_1608_100148)" fill-opacity="0.24"/>
</g>
<g filter="url(#filter15_bi_1608_100148)">
<circle cx="237" cy="81" r="17" fill="#8372A2" fill-opacity="0.16"/>
</g>
<path fill-rule="evenodd" clip-rule="evenodd" d="M229.914 73H244.022V76.242H238.671V78.3871C242.843 78.5542 246 79.3357 246 80.2746C246 81.2136 242.843 81.9952 238.671 82.1622V89H235.265V82.1595C231.125 81.9871 228 81.2088 228 80.2746C228 79.3405 231.125 78.5622 235.265 78.3896V76.242H229.914V73ZM235.265 78.5718C231.673 78.7191 228.985 79.3144 228.985 80.0263C228.985 80.849 232.573 81.5158 237 81.5158C241.427 81.5158 245.015 80.849 245.015 80.0263C245.015 79.3103 242.296 78.7121 238.671 78.5692V81.007H235.265V78.5718Z" fill="url(#paint16_linear_1608_100148)"/>
<g filter="url(#filter16_f_1608_100148)">
<circle cx="237" cy="81" r="8.5" fill="url(#paint17_radial_1608_100148)" fill-opacity="0.24"/>
</g>
<defs>
<filter id="filter0_f_1608_100148" x="19.6036" y="0.603638" width="292.109" height="292.109" filterUnits="userSpaceOnUse" color-interpolation-filters="sRGB">
<feFlood flood-opacity="0" result="BackgroundImageFix"/>
<feBlend mode="normal" in="SourceGraphic" in2="BackgroundImageFix" result="shape"/>
<feGaussianBlur stdDeviation="24" result="effect1_foregroundBlur_1608_100148"/>
</filter>
<filter id="filter1_bd_1608_100148" x="40.3387" y="37.4396" width="269.424" height="269.424" filterUnits="userSpaceOnUse" color-interpolation-filters="sRGB">
<feFlood flood-opacity="0" result="BackgroundImageFix"/>
<feGaussianBlur in="BackgroundImageFix" stdDeviation="2"/>
<feComposite in2="SourceAlpha" operator="in" result="effect1_backgroundBlur_1608_100148"/>
<feColorMatrix in="SourceAlpha" type="matrix" values="0 0 0 0 0 0 0 0 0 0 0 0 0 0 0 0 0 0 127 0" result="hardAlpha"/>
<feMorphology radius="11.6285" operator="erode" in="SourceAlpha" result="effect2_dropShadow_1608_100148"/>
<feOffset dx="8.05051" dy="24.1515"/>
<feGaussianBlur stdDeviation="44.7251"/>
<feComposite in2="hardAlpha" operator="out"/>
<feColorMatrix type="matrix" values="0 0 0 0 0.0846354 0 0 0 0 0.203125 0 0 0 0 0.3125 0 0 0 0.1 0"/>
<feBlend mode="normal" in2="effect1_backgroundBlur_1608_100148" result="effect2_dropShadow_1608_100148"/>
<feBlend mode="normal" in="SourceGraphic" in2="effect2_dropShadow_1608_100148" result="shape"/>
</filter>
<filter id="filter2_b_1608_100148" x="125.647" y="106.763" width="74.664" height="78.7099" filterUnits="userSpaceOnUse" color-interpolation-filters="sRGB">
<feFlood flood-opacity="0" result="BackgroundImageFix"/>
<feGaussianBlur in="BackgroundImageFix" stdDeviation="6.52837"/>
<feComposite in2="SourceAlpha" operator="in" result="effect1_backgroundBlur_1608_100148"/>
<feBlend mode="normal" in="SourceGraphic" in2="effect1_backgroundBlur_1608_100148" result="shape"/>
</filter>
<filter id="filter3_b_1608_100148" x="125.647" y="118.901" width="82.7557" height="70.6181" filterUnits="userSpaceOnUse" color-interpolation-filters="sRGB">
<feFlood flood-opacity="0" result="BackgroundImageFix"/>
<feGaussianBlur in="BackgroundImageFix" stdDeviation="6.52837"/>
<feComposite in2="SourceAlpha" operator="in" result="effect1_backgroundBlur_1608_100148"/>
<feBlend mode="normal" in="SourceGraphic" in2="effect1_backgroundBlur_1608_100148" result="shape"/>
</filter>
<filter id="filter4_b_1608_100148" x="169.677" y="138.655" width="35.1559" height="27.0641" filterUnits="userSpaceOnUse" color-interpolation-filters="sRGB">
<feFlood flood-opacity="0" result="BackgroundImageFix"/>
<feGaussianBlur in="BackgroundImageFix" stdDeviation="2.72015"/>
<feComposite in2="SourceAlpha" operator="in" result="effect1_backgroundBlur_1608_100148"/>
<feBlend mode="normal" in="SourceGraphic" in2="effect1_backgroundBlur_1608_100148" result="shape"/>
</filter>
<filter id="filter5_b_1608_100148" x="166.106" y="135.085" width="34.2053" height="34.2053" filterUnits="userSpaceOnUse" color-interpolation-filters="sRGB">
<feFlood flood-opacity="0" result="BackgroundImageFix"/>
<feGaussianBlur in="BackgroundImageFix" stdDeviation="6.52837"/>
<feComposite in2="SourceAlpha" operator="in" result="effect1_backgroundBlur_1608_100148"/>
<feBlend mode="normal" in="SourceGraphic" in2="effect1_backgroundBlur_1608_100148" result="shape"/>
</filter>
<filter id="filter6_f_1608_100148" x="100.003" y="81.0031" width="131.31" height="131.31" filterUnits="userSpaceOnUse" color-interpolation-filters="sRGB">
<feFlood flood-opacity="0" result="BackgroundImageFix"/>
<feBlend mode="normal" in="SourceGraphic" in2="BackgroundImageFix" result="shape"/>
<feGaussianBlur stdDeviation="12" result="effect1_foregroundBlur_1608_100148"/>
</filter>
<filter id="filter7_f_1608_100148" x="58" y="121" width="136" height="136" filterUnits="userSpaceOnUse" color-interpolation-filters="sRGB">
<feFlood flood-opacity="0" result="BackgroundImageFix"/>
<feBlend mode="normal" in="SourceGraphic" in2="BackgroundImageFix" result="shape"/>
<feGaussianBlur stdDeviation="12" result="effect1_foregroundBlur_1608_100148"/>
</filter>
<filter id="filter8_b_1608_100148" x="78.7728" y="183.875" width="53.0508" height="53.0507" filterUnits="userSpaceOnUse" color-interpolation-filters="sRGB">
<feFlood flood-opacity="0" result="BackgroundImageFix"/>
<feGaussianBlur in="BackgroundImageFix" stdDeviation="2"/>
<feComposite in2="SourceAlpha" operator="in" result="effect1_backgroundBlur_1608_100148"/>
<feBlend mode="normal" in="SourceGraphic" in2="effect1_backgroundBlur_1608_100148" result="shape"/>
</filter>
<filter id="filter9_b_1608_100148" x="76.214" y="139.214" width="99.2586" height="99.2586" filterUnits="userSpaceOnUse" color-interpolation-filters="sRGB">
<feFlood flood-opacity="0" result="BackgroundImageFix"/>
<feGaussianBlur in="BackgroundImageFix" stdDeviation="6.83793"/>
<feComposite in2="SourceAlpha" operator="in" result="effect1_backgroundBlur_1608_100148"/>
<feBlend mode="normal" in="SourceGraphic" in2="effect1_backgroundBlur_1608_100148" result="shape"/>
</filter>
<filter id="filter10_b_1608_100148" x="82.0479" y="145.048" width="87.5913" height="87.5913" filterUnits="userSpaceOnUse" color-interpolation-filters="sRGB">
<feFlood flood-opacity="0" result="BackgroundImageFix"/>
<feGaussianBlur in="BackgroundImageFix" stdDeviation="6.83793"/>
<feComposite in2="SourceAlpha" operator="in" result="effect1_backgroundBlur_1608_100148"/>
<feBlend mode="normal" in="SourceGraphic" in2="effect1_backgroundBlur_1608_100148" result="shape"/>
</filter>
<filter id="filter11_bi_1608_100148" x="220" y="178" width="54" height="54" filterUnits="userSpaceOnUse" color-interpolation-filters="sRGB">
<feFlood flood-opacity="0" result="BackgroundImageFix"/>
<feGaussianBlur in="BackgroundImageFix" stdDeviation="2"/>
<feComposite in2="SourceAlpha" operator="in" result="effect1_backgroundBlur_1608_100148"/>
<feBlend mode="normal" in="SourceGraphic" in2="effect1_backgroundBlur_1608_100148" result="shape"/>
<feColorMatrix in="SourceAlpha" type="matrix" values="0 0 0 0 0 0 0 0 0 0 0 0 0 0 0 0 0 0 127 0" result="hardAlpha"/>
<feOffset dx="-4" dy="-4"/>
<feGaussianBlur stdDeviation="4"/>
<feComposite in2="hardAlpha" operator="arithmetic" k2="-1" k3="1"/>
<feColorMatrix type="matrix" values="0 0 0 0 0.798833 0 0 0 0 0.704167 0 0 0 0 1 0 0 0 0.16 0"/>
<feBlend mode="normal" in2="shape" result="effect2_innerShadow_1608_100148"/>
</filter>
<filter id="filter12_f_1608_100148" x="227.5" y="185.5" width="39" height="39" filterUnits="userSpaceOnUse" color-interpolation-filters="sRGB">
<feFlood flood-opacity="0" result="BackgroundImageFix"/>
<feBlend mode="normal" in="SourceGraphic" in2="BackgroundImageFix" result="shape"/>
<feGaussianBlur stdDeviation="4" result="effect1_foregroundBlur_1608_100148"/>
</filter>
<filter id="filter13_bi_1608_100148" x="77" y="69" width="37" height="37" filterUnits="userSpaceOnUse" color-interpolation-filters="sRGB">
<feFlood flood-opacity="0" result="BackgroundImageFix"/>
<feGaussianBlur in="BackgroundImageFix" stdDeviation="2"/>
<feComposite in2="SourceAlpha" operator="in" result="effect1_backgroundBlur_1608_100148"/>
<feBlend mode="normal" in="SourceGraphic" in2="effect1_backgroundBlur_1608_100148" result="shape"/>
<feColorMatrix in="SourceAlpha" type="matrix" values="0 0 0 0 0 0 0 0 0 0 0 0 0 0 0 0 0 0 127 0" result="hardAlpha"/>
<feOffset dx="-4" dy="-4"/>
<feGaussianBlur stdDeviation="4"/>
<feComposite in2="hardAlpha" operator="arithmetic" k2="-1" k3="1"/>
<feColorMatrix type="matrix" values="0 0 0 0 0.798833 0 0 0 0 0.704167 0 0 0 0 1 0 0 0 0.16 0"/>
<feBlend mode="normal" in2="shape" result="effect2_innerShadow_1608_100148"/>
</filter>
<filter id="filter14_f_1608_100148" x="80.25" y="72.25" width="30.5" height="30.5" filterUnits="userSpaceOnUse" color-interpolation-filters="sRGB">
<feFlood flood-opacity="0" result="BackgroundImageFix"/>
<feBlend mode="normal" in="SourceGraphic" in2="BackgroundImageFix" result="shape"/>
<feGaussianBlur stdDeviation="4" result="effect1_foregroundBlur_1608_100148"/>
</filter>
<filter id="filter15_bi_1608_100148" x="216" y="60" width="42" height="42" filterUnits="userSpaceOnUse" color-interpolation-filters="sRGB">
<feFlood flood-opacity="0" result="BackgroundImageFix"/>
<feGaussianBlur in="BackgroundImageFix" stdDeviation="2"/>
<feComposite in2="SourceAlpha" operator="in" result="effect1_backgroundBlur_1608_100148"/>
<feBlend mode="normal" in="SourceGraphic" in2="effect1_backgroundBlur_1608_100148" result="shape"/>
<feColorMatrix in="SourceAlpha" type="matrix" values="0 0 0 0 0 0 0 0 0 0 0 0 0 0 0 0 0 0 127 0" result="hardAlpha"/>
<feOffset dx="-4" dy="-4"/>
<feGaussianBlur stdDeviation="4"/>
<feComposite in2="hardAlpha" operator="arithmetic" k2="-1" k3="1"/>
<feColorMatrix type="matrix" values="0 0 0 0 0.798833 0 0 0 0 0.704167 0 0 0 0 1 0 0 0 0.16 0"/>
<feBlend mode="normal" in2="shape" result="effect2_innerShadow_1608_100148"/>
</filter>
<filter id="filter16_f_1608_100148" x="220.5" y="64.5" width="33" height="33" filterUnits="userSpaceOnUse" color-interpolation-filters="sRGB">
<feFlood flood-opacity="0" result="BackgroundImageFix"/>
<feBlend mode="normal" in="SourceGraphic" in2="BackgroundImageFix" result="shape"/>
<feGaussianBlur stdDeviation="4" result="effect1_foregroundBlur_1608_100148"/>
</filter>
<linearGradient id="paint0_linear_1608_100148" x1="167.118" y1="91" x2="167.118" y2="204.764" gradientUnits="userSpaceOnUse">
<stop stop-color="white" stop-opacity="0.24"/>
<stop offset="1" stop-color="white" stop-opacity="0.04"/>
</linearGradient>
<linearGradient id="paint1_linear_1608_100148" x1="152.709" y1="131.326" x2="190.554" y2="143.339" gradientUnits="userSpaceOnUse">
<stop stop-color="#8156DB"/>
<stop offset="1" stop-color="#4C2AAC"/>
</linearGradient>
<linearGradient id="paint2_linear_1608_100148" x1="155.043" y1="141.693" x2="195.831" y2="159.545" gradientUnits="userSpaceOnUse">
<stop stop-color="#B293F2"/>
<stop offset="1" stop-color="#C8B6FA"/>
</linearGradient>
<linearGradient id="paint3_linear_1608_100148" x1="134.658" y1="136.004" x2="205.461" y2="182.531" gradientUnits="userSpaceOnUse">
<stop stop-color="white"/>
<stop offset="1" stop-color="white" stop-opacity="0"/>
</linearGradient>
<linearGradient id="paint4_linear_1608_100148" x1="182.119" y1="147.636" x2="198.571" y2="156.122" gradientUnits="userSpaceOnUse">
<stop stop-color="#8156DB"/>
<stop offset="1" stop-color="#4C2AAC"/>
</linearGradient>
<radialGradient id="paint5_radial_1608_100148" cx="0" cy="0" r="1" gradientUnits="userSpaceOnUse" gradientTransform="translate(126 189) rotate(90) scale(44)">
<stop offset="0.526042" stop-color="#000212"/>
<stop offset="1" stop-color="#000212" stop-opacity="0"/>
</radialGradient>
<linearGradient id="paint6_linear_1608_100148" x1="82.3561" y1="208.508" x2="54.4813" y2="250.913" gradientUnits="userSpaceOnUse">
<stop stop-color="white"/>
<stop offset="1" stop-color="#BA9AFF"/>
</linearGradient>
<linearGradient id="paint7_linear_1608_100148" x1="141.101" y1="173.949" x2="113.461" y2="205.044" gradientUnits="userSpaceOnUse">
<stop stop-color="white"/>
<stop offset="1" stop-color="#9F6BFC"/>
</linearGradient>
<linearGradient id="paint8_linear_1608_100148" x1="141.101" y1="173.949" x2="113.461" y2="205.044" gradientUnits="userSpaceOnUse">
<stop stop-color="white"/>
<stop offset="1" stop-color="#9F6BFC"/>
</linearGradient>
<linearGradient id="paint9_linear_1608_100148" x1="141.101" y1="173.949" x2="113.461" y2="205.044" gradientUnits="userSpaceOnUse">
<stop stop-color="white"/>
<stop offset="1" stop-color="#9F6BFC"/>
</linearGradient>
<linearGradient id="paint10_linear_1608_100148" x1="73.4238" y1="160.005" x2="155.192" y2="206.997" gradientUnits="userSpaceOnUse">
<stop stop-color="white"/>
<stop offset="1" stop-color="white" stop-opacity="0"/>
</linearGradient>
<linearGradient id="paint11_linear_1608_100148" x1="257" y1="192" x2="231.87" y2="211.331" gradientUnits="userSpaceOnUse">
<stop stop-color="white"/>
<stop offset="1" stop-color="#9F6BFC"/>
</linearGradient>
<radialGradient id="paint12_radial_1608_100148" cx="0" cy="0" r="1" gradientUnits="userSpaceOnUse" gradientTransform="translate(235.5 205) scale(23 15766.2)">
<stop stop-color="#953FD9"/>
<stop offset="1" stop-color="#8A53EF"/>
</radialGradient>
<linearGradient id="paint13_linear_1608_100148" x1="101" y1="78" x2="84.982" y2="87.7888" gradientUnits="userSpaceOnUse">
<stop stop-color="white"/>
<stop offset="1" stop-color="#9F6BFC"/>
</linearGradient>
<linearGradient id="paint14_linear_1608_100148" x1="101" y1="78" x2="84.982" y2="87.7888" gradientUnits="userSpaceOnUse">
<stop stop-color="white"/>
<stop offset="1" stop-color="#9F6BFC"/>
</linearGradient>
<radialGradient id="paint15_radial_1608_100148" cx="0" cy="0" r="1" gradientUnits="userSpaceOnUse" gradientTransform="translate(88.25 87.4997) scale(14.5 9939.57)">
<stop stop-color="#3F7DD9"/>
<stop offset="1" stop-color="#8A53EF"/>
</radialGradient>
<linearGradient id="paint16_linear_1608_100148" x1="246" y1="73" x2="230.11" y2="90.8759" gradientUnits="userSpaceOnUse">
<stop stop-color="white"/>
<stop offset="1" stop-color="#9F6BFC"/>
</linearGradient>
<radialGradient id="paint17_radial_1608_100148" cx="0" cy="0" r="1" gradientUnits="userSpaceOnUse" gradientTransform="translate(228.5 80.9997) scale(17 11653.3)">
<stop stop-color="#3F7DD9"/>
<stop offset="1" stop-color="#8A53EF"/>
</radialGradient>
</defs>
</svg>
