<svg width="1439" height="400" viewBox="0 0 1439 400" fill="none" xmlns="http://www.w3.org/2000/svg">
<mask id="mask0_2756_79293" style="mask-type:alpha" maskUnits="userSpaceOnUse" x="424" y="-86" width="552" height="532">
<path d="M851.487 321.809L424.474 399.156L583.517 -46.8468C589.992 -64.7402 605.016 -78.3224 623.818 -81.728L624.088 -81.7769C630.426 -82.9249 636.811 -83.8135 643.203 -84.6974L490.608 343.084L490.462 343.491L490.888 343.414L819.538 283.884L851.487 321.809ZM676.528 27.6478L957.698 360.226L492.738 444.445C473.663 447.901 454.022 440.594 441.587 425.572L441.586 425.57C437.775 421.067 434.174 416.257 430.572 411.433L876.124 330.729L876.549 330.652L876.27 330.322L659.912 74.368L676.528 27.6478ZM971.823 332.325L972.058 332.41L971.823 332.326C969.834 337.878 967.587 343.477 965.289 348.826L672.384 2.01327L672.104 1.68123L671.958 2.09058L559.394 317.622L510.562 326.467L656.944 -83.5546L962.59 278.276L962.59 278.277C975.29 293.245 978.469 313.843 971.823 332.325Z" fill="url(#paint0_linear_2756_79293)" stroke="url(#paint1_linear_2756_79293)" stroke-width="0.5"/>
</mask>
<g mask="url(#mask0_2756_79293)">
<path fill-rule="evenodd" clip-rule="evenodd" d="M348.952 -32.1947C347.322 -31.8994 346.239 -30.3384 346.535 -28.7081L347.849 -21.4544C348.144 -19.8241 349.705 -18.7418 351.335 -19.0371L1006.6 -137.728C1008.23 -138.023 1009.31 -139.584 1009.02 -141.214L1007.7 -148.468C1007.41 -150.098 1005.85 -151.181 1004.22 -150.885L348.952 -32.1947ZM352.527 -12.4583C350.897 -12.163 349.814 -10.602 350.11 -8.97165L351.424 -1.71798C351.719 -0.0876524 353.28 0.994598 354.91 0.699291L1010.18 -117.991C1011.81 -118.287 1012.89 -119.848 1012.59 -121.478L1011.28 -128.732C1010.98 -130.362 1009.42 -131.444 1007.79 -131.149L352.527 -12.4583ZM353.685 10.7648C353.389 9.13443 354.471 7.5734 356.102 7.27809L1011.37 -111.412C1013 -111.708 1014.56 -110.625 1014.85 -108.995L1016.17 -101.741C1016.46 -100.111 1015.38 -98.5501 1013.75 -98.2548L358.485 20.4357C356.855 20.731 355.294 19.6488 354.998 18.0184L353.685 10.7648ZM359.677 27.0145C358.046 27.3098 356.964 28.8708 357.259 30.5012L358.573 37.7548C358.869 39.3852 360.43 40.4674 362.06 40.1721L1017.33 -78.5184C1018.96 -78.8137 1020.04 -80.3747 1019.74 -82.005L1018.43 -89.2587C1018.13 -90.889 1016.57 -91.9713 1014.94 -91.676L359.677 27.0145ZM360.834 50.2376C360.539 48.6073 361.621 47.0462 363.252 46.7509L1018.52 -71.9396C1020.15 -72.2349 1021.71 -71.1526 1022 -69.5223L1023.32 -62.2686C1023.61 -60.6383 1022.53 -59.0773 1020.9 -58.782L365.635 59.9085C364.005 60.2038 362.444 59.1216 362.148 57.4913L360.834 50.2376ZM366.827 66.4873C365.196 66.7826 364.114 68.3437 364.409 69.974L365.723 77.2277C366.018 78.858 367.58 79.9402 369.21 79.6449L1024.48 -39.0456C1026.11 -39.3409 1027.19 -40.9019 1026.89 -42.5322L1025.58 -49.7859C1025.28 -51.4162 1023.72 -52.4985 1022.09 -52.2032L366.827 66.4873ZM367.984 89.7104C367.689 88.0801 368.771 86.519 370.401 86.2237L1025.67 -32.4667C1027.3 -32.7621 1028.86 -31.6798 1029.15 -30.0495L1030.47 -22.7958C1030.76 -21.1655 1029.68 -19.6044 1028.05 -19.3091L372.785 99.3814C371.154 99.6767 369.593 98.5944 369.298 96.9641L367.984 89.7104ZM373.976 105.96C372.346 106.255 371.264 107.817 371.559 109.447L372.873 116.701C373.168 118.331 374.729 119.413 376.36 119.118L1031.63 0.427286C1033.26 0.131978 1034.34 -1.42906 1034.04 -3.05939L1032.73 -10.3131C1032.43 -11.9434 1030.87 -13.0256 1029.24 -12.7303L373.976 105.96ZM375.134 129.183C374.839 127.553 375.921 125.992 377.551 125.697L1032.82 7.00609C1034.45 6.71078 1036.01 7.79302 1036.3 9.42335L1037.62 16.677C1037.91 18.3074 1036.83 19.8684 1035.2 20.1637L379.935 138.854C378.304 139.149 376.743 138.067 376.448 136.437L375.134 129.183ZM381.126 145.433C379.496 145.728 378.414 147.289 378.709 148.92L380.023 156.173C380.318 157.804 381.879 158.886 383.51 158.591L1038.78 39.9001C1040.41 39.6048 1041.49 38.0438 1041.19 36.4134L1039.88 29.1598C1039.58 27.5294 1038.02 26.4472 1036.39 26.7425L381.126 145.433ZM382.284 168.656C381.989 167.026 383.071 165.465 384.701 165.169L1039.97 46.4789C1041.6 46.1836 1043.16 47.2658 1043.45 48.8962L1044.77 56.1498C1045.06 57.7802 1043.98 59.3412 1042.35 59.6365L387.084 178.327C385.454 178.622 383.893 177.54 383.598 175.91L382.284 168.656ZM388.276 184.906C386.646 185.201 385.564 186.762 385.859 188.392L387.173 195.646C387.468 197.276 389.029 198.359 390.659 198.063L1045.93 79.3729C1047.56 79.0776 1048.64 77.5166 1048.34 75.8863L1047.03 68.6326C1046.73 67.0023 1045.17 65.92 1043.54 66.2153L388.276 184.906ZM389.434 208.129C389.138 206.499 390.221 204.938 391.851 204.642L1047.12 85.9517C1048.75 85.6564 1050.31 86.7387 1050.6 88.369L1051.92 95.6227C1052.21 97.253 1051.13 98.814 1049.5 99.1093L394.234 217.8C392.604 218.095 391.043 217.013 390.748 215.383L389.434 208.129ZM395.426 224.379C393.796 224.674 392.713 226.235 393.009 227.865L394.323 235.119C394.618 236.749 396.179 237.832 397.809 237.536L1053.08 118.846C1054.71 118.55 1055.79 116.989 1055.49 115.359L1054.18 108.105C1053.88 106.475 1052.32 105.393 1050.69 105.688L395.426 224.379ZM396.584 247.602C396.288 245.971 397.371 244.41 399.001 244.115L1054.27 125.425C1055.9 125.129 1057.46 126.211 1057.75 127.842L1059.07 135.095C1059.36 136.726 1058.28 138.287 1056.65 138.582L401.384 257.273C399.754 257.568 398.193 256.486 397.897 254.855L396.584 247.602ZM402.576 263.851C400.945 264.147 399.863 265.708 400.159 267.338L401.472 274.592C401.768 276.222 403.329 277.304 404.959 277.009L1060.23 158.319C1061.86 158.023 1062.94 156.462 1062.64 154.832L1061.33 147.578C1061.03 145.948 1059.47 144.866 1057.84 145.161L402.576 263.851ZM403.733 287.075C403.438 285.444 404.52 283.883 406.151 283.588L1061.42 164.897C1063.05 164.602 1064.61 165.684 1064.9 167.315L1066.22 174.568C1066.51 176.199 1065.43 177.76 1063.8 178.055L408.534 296.745C406.904 297.041 405.343 295.959 405.047 294.328L403.733 287.075ZM409.726 303.324C408.095 303.62 407.013 305.181 407.308 306.811L408.622 314.065C408.918 315.695 410.479 316.777 412.109 316.482L1067.37 197.791C1069.01 197.496 1070.09 195.935 1069.79 194.305L1068.48 187.051C1068.18 185.421 1066.62 184.338 1064.99 184.634L409.726 303.324ZM410.883 326.547C410.588 324.917 411.67 323.356 413.301 323.061L1068.57 204.37C1070.2 204.075 1071.76 205.157 1072.05 206.787L1073.37 214.041C1073.66 215.671 1072.58 217.232 1070.95 217.528L415.684 336.218C414.053 336.514 412.492 335.431 412.197 333.801L410.883 326.547ZM416.875 342.797C415.245 343.092 414.163 344.653 414.458 346.284L415.772 353.537C416.067 355.168 417.628 356.25 419.259 355.955L1074.52 237.264C1076.16 236.969 1077.24 235.408 1076.94 233.778L1075.63 226.524C1075.33 224.894 1073.77 223.811 1072.14 224.107L416.875 342.797ZM418.033 366.02C417.738 364.39 418.82 362.829 420.45 362.534L1075.72 243.843C1077.35 243.548 1078.91 244.63 1079.2 246.26L1080.52 253.514C1080.81 255.144 1079.73 256.705 1078.1 257.001L422.834 375.691C421.203 375.986 419.642 374.904 419.347 373.274L418.033 366.02ZM424.025 382.27C422.395 382.565 421.313 384.126 421.608 385.757L422.922 393.01C423.217 394.641 424.778 395.723 426.409 395.428L1081.67 276.737C1083.3 276.442 1084.39 274.881 1084.09 273.25L1082.78 265.997C1082.48 264.366 1080.92 263.284 1079.29 263.579L424.025 382.27ZM425.183 405.493C424.888 403.863 425.97 402.302 427.6 402.006L1082.87 283.316C1084.5 283.021 1086.06 284.103 1086.35 285.733L1087.67 292.987C1087.96 294.617 1086.88 296.178 1085.25 296.473L429.984 415.164C428.353 415.459 426.792 414.377 426.497 412.747L425.183 405.493ZM431.175 421.743C429.545 422.038 428.463 423.599 428.758 425.229L430.072 432.483C430.367 434.113 431.928 435.196 433.558 434.9L1088.82 316.21C1090.45 315.915 1091.54 314.354 1091.24 312.723L1089.93 305.47C1089.63 303.839 1088.07 302.757 1086.44 303.052L431.175 421.743ZM432.333 444.966C432.038 443.336 433.12 441.774 434.75 441.479L1090.02 322.789C1091.65 322.493 1093.21 323.576 1093.5 325.206L1094.82 332.46C1095.11 334.09 1094.03 335.651 1092.4 335.946L437.133 454.637C435.503 454.932 433.942 453.85 433.647 452.22L432.333 444.966ZM438.325 461.216C436.695 461.511 435.612 463.072 435.908 464.702L437.222 471.956C437.517 473.586 439.078 474.668 440.708 474.373L1095.97 355.683C1097.6 355.387 1098.69 353.826 1098.39 352.196L1097.08 344.942C1096.78 343.312 1095.22 342.23 1093.59 342.525L438.325 461.216ZM439.483 484.439C439.187 482.808 440.27 481.247 441.9 480.952L1097.17 362.261C1098.8 361.966 1100.36 363.048 1100.65 364.679L1101.97 371.932C1102.26 373.563 1101.18 375.124 1099.55 375.419L444.283 494.11C442.653 494.405 441.092 493.323 440.797 491.692L439.483 484.439ZM445.475 500.688C443.845 500.984 442.762 502.545 443.058 504.175L444.371 511.429C444.667 513.059 446.228 514.141 447.858 513.846L1103.12 395.156C1104.75 394.86 1105.84 393.299 1105.54 391.669L1104.23 384.415C1103.93 382.785 1102.37 381.703 1100.74 381.998L445.475 500.688ZM446.633 523.911C446.337 522.281 447.419 520.72 449.05 520.425L1104.32 401.734C1105.95 401.439 1107.51 402.521 1107.8 404.152L1109.12 411.405C1109.41 413.036 1108.33 414.597 1106.7 414.892L451.433 533.582C449.803 533.878 448.242 532.796 447.946 531.165L446.633 523.911ZM452.625 540.161C450.994 540.456 449.912 542.018 450.207 543.648L451.521 550.902C451.817 552.532 453.378 553.614 455.008 553.319L1110.27 434.628C1111.9 434.333 1112.99 432.772 1112.69 431.142L1111.38 423.888C1111.08 422.258 1109.52 421.175 1107.89 421.471L452.625 540.161Z" fill="url(#paint2_linear_2756_79293)"/>
</g>
<path fill-rule="evenodd" clip-rule="evenodd" d="M247.352 29.3319C247.352 25.0463 244.886 21.1 240.814 18.205C236.744 15.3112 231.105 13.5 224.881 13.5H0.00012207V12.5H224.881C231.291 12.5 237.137 14.3635 241.394 17.39C245.649 20.4153 248.352 24.6349 248.352 29.3319V48.1135C248.352 52.3991 250.817 56.3454 254.889 59.2404C258.959 62.1342 264.598 63.9454 270.822 63.9454L520.513 63.9454V64.9454L270.822 64.9454C264.413 64.9454 258.566 63.082 254.309 60.0554C250.054 57.0301 247.352 52.8105 247.352 48.1135V29.3319ZM205.899 50.8688C209.971 53.7638 212.436 57.7101 212.436 61.9957V80.7774C212.436 85.4743 215.139 89.694 219.394 92.7192C223.651 95.7458 229.497 97.6092 235.907 97.6092H507.783V96.6092H235.907C229.683 96.6092 224.044 94.798 219.974 91.9043C215.902 89.0092 213.436 85.0629 213.436 80.7774V61.9957C213.436 57.2987 210.734 53.0791 206.479 50.0538C202.222 47.0273 196.375 45.1638 189.966 45.1638H0.000183105V46.1638H189.966C196.19 46.1638 201.829 47.975 205.899 50.8688ZM247.352 126.506C247.352 122.221 244.886 118.275 240.814 115.38C236.744 112.486 231.105 110.675 224.881 110.675H0.000183105V109.675H224.881C231.291 109.675 237.137 111.538 241.394 114.565C245.649 117.59 248.352 121.809 248.352 126.506V145.451C248.352 149.737 250.817 153.683 254.889 156.578C258.959 159.472 264.598 161.283 270.822 161.283H475.251V162.283H270.822C264.413 162.283 258.566 160.42 254.309 157.393C250.054 154.368 247.352 150.148 247.352 145.451V126.506ZM212.436 159.156C212.436 154.87 209.971 150.924 205.899 148.029C201.829 145.135 196.19 143.324 189.966 143.324H0.00012207V142.324H189.966C196.375 142.324 202.222 144.188 206.479 147.214C210.734 150.239 213.436 154.459 213.436 159.156V177.938C213.436 182.223 215.902 186.169 219.974 189.065C224.044 191.958 229.683 193.77 235.907 193.77H461.107V194.77H235.907C229.497 194.77 223.651 192.906 219.394 189.88C215.139 186.854 212.436 182.635 212.436 177.938V159.156ZM240.814 213.371C244.886 216.266 247.352 220.212 247.352 224.498V243.279C247.352 247.976 250.054 252.196 254.309 255.221C258.566 258.248 264.413 260.111 270.822 260.111H427.16V259.111H270.822C264.598 259.111 258.959 257.3 254.889 254.406C250.817 251.511 248.352 247.565 248.352 243.279V224.498C248.352 219.801 245.649 215.581 241.394 212.556C237.137 209.529 231.291 207.666 224.881 207.666H0.000244141V208.666H224.881C231.105 208.666 236.744 210.477 240.814 213.371ZM212.436 253.732C212.436 249.446 209.971 245.5 205.899 242.605C201.829 239.711 196.19 237.9 189.966 237.9H0.00012207V236.9H189.966C196.375 236.9 202.222 238.763 206.479 241.79C210.734 244.815 213.436 249.035 213.436 253.732V272.514C213.436 276.816 215.92 281.324 220.007 284.774C224.086 288.216 229.716 290.561 235.907 290.561H410.187V291.561H235.907C229.465 291.561 223.609 289.123 219.362 285.538C215.122 281.959 212.436 277.194 212.436 272.514V253.732ZM247.352 322.489C247.352 318.204 244.886 314.257 240.814 311.362C236.744 308.469 231.105 306.657 224.881 306.657H0.00012207V305.657H224.881C231.291 305.657 237.137 307.521 241.394 310.547C245.649 313.573 248.352 317.792 248.352 322.489V341.271C248.352 345.556 250.817 349.503 254.889 352.398C258.959 355.292 264.598 357.103 270.822 357.103H379.07V358.103H270.822C264.413 358.103 258.566 356.239 254.309 353.213C250.054 350.188 247.352 345.968 247.352 341.271V322.489ZM205.899 340.76C209.971 343.655 212.436 347.601 212.436 351.887V370.668C212.436 375.341 215.115 380.362 219.348 384.199C223.591 388.044 229.45 390.752 235.907 390.752H370.583V389.752H235.907C229.731 389.752 224.104 387.16 220.02 383.458C215.927 379.749 213.436 374.978 213.436 370.668V351.887C213.436 347.19 210.734 342.97 206.479 339.945C202.222 336.918 196.375 335.055 189.966 335.055H0.00012207V336.055H189.966C196.19 336.055 201.829 337.866 205.899 340.76ZM0.00012207 366.105H181.007V365.105H0.00012207V366.105ZM400.286 320.83H287.131V319.83H400.286V320.83ZM0.00012207 271.544H181.007V270.544H0.00012207V271.544ZM448.377 223.265H287.131V222.265H448.377V223.265ZM0.00012207 174.206H181.007V173.206H0.00012207V174.206ZM492.225 128.952H287.131V127.952H492.225V128.952ZM0.00012207 76.7042H181.007V75.7042H0.00012207V76.7042ZM529 33.0131H288.545V32.0131H529V33.0131Z" fill="url(#paint3_linear_2756_79293)"/>
<path fill-rule="evenodd" clip-rule="evenodd" d="M1168.69 29.3319C1168.69 25.0668 1171.37 21.1206 1175.84 18.2166C1180.29 15.3161 1186.47 13.5 1193.29 13.5H1439V12.5H1193.29C1186.3 12.5 1179.93 14.3586 1175.29 17.3784C1170.66 20.3946 1167.69 24.6144 1167.69 29.3319V48.1135C1167.69 52.3786 1165.01 56.3248 1160.55 59.2288C1156.09 62.1293 1149.91 63.9454 1143.09 63.9454L870.273 63.9454V64.9454L1143.09 64.9454C1150.08 64.9454 1156.45 63.0868 1161.09 60.067C1165.73 57.0508 1168.69 52.831 1168.69 48.1135V29.3319ZM1213.99 50.8804C1209.52 53.7845 1206.84 57.7306 1206.84 61.9957V80.7774C1206.84 85.4948 1203.88 89.7146 1199.24 92.7308C1194.6 95.7507 1188.23 97.6092 1181.24 97.6092H884.182V96.6092H1181.24C1188.06 96.6092 1194.24 94.7931 1198.69 91.8927C1203.16 88.9886 1205.84 85.0424 1205.84 80.7774V61.9957C1205.84 57.2782 1208.8 53.0585 1213.44 50.0422C1218.08 47.0224 1224.45 45.1638 1231.44 45.1638H1439V46.1638H1231.44C1224.62 46.1638 1218.44 47.9799 1213.99 50.8804ZM1168.69 126.506C1168.69 122.241 1171.37 118.295 1175.84 115.391C1180.29 112.491 1186.47 110.675 1193.29 110.675H1439V109.675H1193.29C1186.3 109.675 1179.93 111.533 1175.29 114.553C1170.66 117.569 1167.69 121.789 1167.69 126.506V145.451C1167.69 149.716 1165.01 153.663 1160.55 156.567C1156.09 159.467 1149.91 161.283 1143.09 161.283H919.727V162.283H1143.09C1150.08 162.283 1156.45 160.425 1161.09 157.405C1165.73 154.389 1168.69 150.169 1168.69 145.451V126.506ZM1206.84 159.156C1206.84 154.891 1209.52 150.945 1213.99 148.041C1218.44 145.14 1224.62 143.324 1231.44 143.324H1439V142.324H1231.44C1224.45 142.324 1218.08 144.183 1213.44 147.202C1208.8 150.219 1205.84 154.439 1205.84 159.156V177.938C1205.84 182.203 1203.16 186.149 1198.69 189.053C1194.24 191.953 1188.06 193.77 1181.24 193.77H935.182V194.77H1181.24C1188.23 194.77 1194.6 192.911 1199.24 189.891C1203.88 186.875 1206.84 182.655 1206.84 177.938V159.156ZM1175.84 213.382C1171.37 216.286 1168.69 220.233 1168.69 224.498V243.279C1168.69 247.997 1165.73 252.217 1161.09 255.233C1156.45 258.253 1150.08 260.111 1143.09 260.111H972.273V259.111H1143.09C1149.91 259.111 1156.09 257.295 1160.55 254.395C1165.01 251.491 1167.69 247.544 1167.69 243.279V224.498C1167.69 219.78 1170.66 215.56 1175.29 212.544C1179.93 209.524 1186.3 207.666 1193.29 207.666H1439V208.666H1193.29C1186.47 208.666 1180.29 210.482 1175.84 213.382ZM1206.84 253.732C1206.84 249.467 1209.52 245.521 1213.99 242.617C1218.44 239.716 1224.62 237.9 1231.44 237.9H1439V236.9H1231.44C1224.45 236.9 1218.08 238.759 1213.44 241.778C1208.8 244.795 1205.84 249.014 1205.84 253.732V272.514C1205.84 276.798 1203.14 281.303 1198.66 284.76C1194.2 288.208 1188.03 290.561 1181.24 290.561H990.818V291.561H1181.24C1188.26 291.561 1194.64 289.131 1199.27 285.551C1203.9 281.98 1206.84 277.212 1206.84 272.514V253.732ZM1168.69 322.489C1168.69 318.224 1171.37 314.278 1175.84 311.374C1180.29 308.473 1186.47 306.657 1193.29 306.657H1439V305.657H1193.29C1186.3 305.657 1179.93 307.516 1175.29 310.536C1170.66 313.552 1167.69 317.772 1167.69 322.489V341.271C1167.69 345.536 1165.01 349.482 1160.55 352.386C1156.09 355.287 1149.91 357.103 1143.09 357.103H1024.82V358.103H1143.09C1150.08 358.103 1156.45 356.244 1161.09 353.224C1165.73 350.208 1168.69 345.988 1168.69 341.271V322.489ZM1213.99 340.771C1209.52 343.675 1206.84 347.622 1206.84 351.887V370.668C1206.84 375.359 1203.9 380.383 1199.29 384.213C1194.66 388.054 1188.27 390.752 1181.24 390.752H1034.09V389.752H1181.24C1188.02 389.752 1194.18 387.15 1198.65 383.444C1203.13 379.728 1205.84 374.96 1205.84 370.668V351.887C1205.84 347.169 1208.8 342.949 1213.44 339.933C1218.08 336.913 1224.45 335.055 1231.44 335.055H1439V336.055H1231.44C1224.62 336.055 1218.44 337.871 1213.99 340.771ZM1439 366.105H1241.23V365.105H1439V366.105ZM1001.64 320.83H1125.27V319.83H1001.64V320.83ZM1439 271.544H1241.23V270.544H1439V271.544ZM949.091 223.265H1125.27V222.265H949.091V223.265ZM1439 174.206H1241.23V173.206H1439V174.206ZM901.182 128.952H1125.27V127.952H901.182V128.952ZM1439 76.7042H1241.23V75.7042H1439V76.7042ZM861 33.0131H1123.73V32.0131H861V33.0131Z" fill="url(#paint4_linear_2756_79293)"/>
<defs>
<linearGradient id="paint0_linear_2756_79293" x1="619.574" y1="-81.2134" x2="764.944" y2="388.039" gradientUnits="userSpaceOnUse">
<stop stop-color="#8979A5"/>
<stop offset="1" stop-color="#12101D"/>
</linearGradient>
<linearGradient id="paint1_linear_2756_79293" x1="620.942" y1="-81.4612" x2="709.147" y2="405.501" gradientUnits="userSpaceOnUse">
<stop stop-color="white" stop-opacity="0.24"/>
<stop offset="1" stop-color="white" stop-opacity="0.04"/>
</linearGradient>
<linearGradient id="paint2_linear_2756_79293" x1="1007.17" y1="-151.42" x2="544.834" y2="610.176" gradientUnits="userSpaceOnUse">
<stop stop-color="#262833"/>
<stop offset="1" stop-color="#030513"/>
</linearGradient>
<linearGradient id="paint3_linear_2756_79293" x1="441.5" y1="203.256" x2="3.4061e-05" y2="203.256" gradientUnits="userSpaceOnUse">
<stop stop-color="#7A6CAE" stop-opacity="0"/>
<stop offset="0.505208" stop-color="#191722"/>
<stop offset="1" stop-color="#7A6CAE" stop-opacity="0"/>
</linearGradient>
<linearGradient id="paint4_linear_2756_79293" x1="992.5" y1="203.256" x2="1439" y2="203.256" gradientUnits="userSpaceOnUse">
<stop stop-color="#7A6CAE" stop-opacity="0"/>
<stop offset="0.505208" stop-color="#191722"/>
<stop offset="1" stop-color="#7A6CAE" stop-opacity="0"/>
</linearGradient>
</defs>
</svg>
