<svg width="40" height="40" viewBox="0 0 40 40" fill="none" xmlns="http://www.w3.org/2000/svg">
<rect width="40" height="40" rx="14" fill="#472C76"/>
<path d="M10.7143 24.2857H12.1429V25.8764C12.1429 26.5743 12.7107 27.1429 13.4093 27.1429H15.7329C15.2603 27.7575 15.0028 28.5104 15 29.2857C15 29.4752 15.0753 29.6568 15.2092 29.7908C15.3432 29.9247 15.5248 30 15.7143 30H24.2857C24.4752 30 24.6568 29.9247 24.7908 29.7908C24.9247 29.6568 25 29.4752 25 29.2857C25 28.4786 24.7207 27.7414 24.2671 27.1429H26.59C27.2886 27.1429 27.8571 26.5743 27.8571 25.8764V24.2857H29.2857C29.4752 24.2857 29.6568 24.2105 29.7908 24.0765C29.9247 23.9426 30 23.7609 30 23.5714V19.2857C30 19.0963 29.9247 18.9146 29.7908 18.7806C29.6568 18.6467 29.4752 18.5714 29.2857 18.5714H27.8571V16.9807C27.8571 16.2821 27.2886 15.7143 26.59 15.7143H20.7143V14.1543C21.1309 14.0075 21.4919 13.7354 21.7477 13.3752C22.0035 13.0151 22.1415 12.5846 22.1429 12.1429C22.1429 10.9614 21.1814 10 20 10C18.8186 10 17.8571 10.9614 17.8571 12.1429C17.8571 13.0729 18.4557 13.8586 19.2857 14.1543V15.7143H13.4093C12.7107 15.7143 12.1429 16.2821 12.1429 16.9807V18.5714H10.7143C10.5248 18.5714 10.3432 18.6467 10.2092 18.7806C10.0753 18.9146 10 19.0963 10 19.2857V23.5714C10 23.7609 10.0753 23.9426 10.2092 24.0765C10.3432 24.2105 10.5248 24.2857 10.7143 24.2857ZM20 11.4286C20.3936 11.4286 20.7143 11.7493 20.7143 12.1429C20.7143 12.5364 20.3936 12.8571 20 12.8571C19.6064 12.8571 19.2857 12.5364 19.2857 12.1429C19.2857 11.7493 19.6064 11.4286 20 11.4286ZM11.4286 20H12.1429V22.8571H11.4286V20ZM13.5714 17.1429H26.4286V25.7143H13.5714V17.1429ZM28.5714 22.8571H27.8571V20H28.5714V22.8571ZM23.4493 28.5714H16.55C16.6982 28.1538 16.9721 27.7922 17.334 27.5364C17.696 27.2806 18.1282 27.1431 18.5714 27.1429H21.4286C22.36 27.1429 23.1543 27.74 23.4493 28.5714Z" fill="white"/>
<path d="M23.5717 21.4286C23.9662 21.4286 24.286 21.1088 24.286 20.7143C24.286 20.3198 23.9662 20 23.5717 20C23.1772 20 22.8574 20.3198 22.8574 20.7143C22.8574 21.1088 23.1772 21.4286 23.5717 21.4286Z" fill="#B78DFF"/>
<path d="M16.4286 21.4286C16.8231 21.4286 17.1429 21.1088 17.1429 20.7143C17.1429 20.3198 16.8231 20 16.4286 20C16.0342 20 15.7144 20.3198 15.7144 20.7143C15.7144 21.1088 16.0342 21.4286 16.4286 21.4286Z" fill="#B78DFF"/>
<path d="M16.4282 23.5715C16.4282 23.7609 16.5035 23.9426 16.6374 24.0765C16.7714 24.2105 16.9531 24.2857 17.1425 24.2857H22.8568C23.0462 24.2857 23.2279 24.2105 23.3619 24.0765C23.4958 23.9426 23.5711 23.7609 23.5711 23.5715C23.5711 23.382 23.4958 23.2003 23.3619 23.0664C23.2279 22.9324 23.0462 22.8572 22.8568 22.8572H17.1425C16.9531 22.8572 16.7714 22.9324 16.6374 23.0664C16.5035 23.2003 16.4282 23.382 16.4282 23.5715Z" fill="#B78DFF"/>
</svg>
