<svg width="115" height="32" viewBox="0 0 115 32" fill="none" xmlns="http://www.w3.org/2000/svg">
<path d="M55.2953 27.7061C55.12 27.531 55.0542 27.334 55.0542 27.0933C55.0542 26.8525 55.1419 26.6555 55.2953 26.5023C55.4707 26.3491 55.668 26.2616 55.8872 26.2616C56.1283 26.2616 56.3256 26.3491 56.479 26.5023C56.6544 26.6555 56.7202 26.8744 56.7202 27.0933C56.7202 27.334 56.6325 27.531 56.479 27.7061C56.3037 27.8812 56.1064 27.9687 55.8872 27.9687C55.6461 27.9469 55.4488 27.8812 55.2953 27.7061Z" fill="#BB5FB3"/>
<path d="M58.8799 31.503L62.8735 22.7273H64.1207L68.127 31.503H66.8041L63.2388 23.4294H63.7428L60.1775 31.503H58.8799ZM60.5806 29.3091L60.9208 28.3062H65.8845L66.2498 29.3091H60.5806Z" fill="#BB5FB3"/>
<path d="M71.3322 31.503V22.7273H72.3653L76.3211 29.3592H75.7668L79.6722 22.7273H80.7053L80.7179 31.503H79.5085L79.4959 24.6203H79.7856L76.3085 30.4374H75.729L72.2267 24.6203H72.5416V31.503H71.3322Z" fill="#BB5FB3"/>
<path d="M85.2542 31.503V22.7273H86.514V30.4123H91.2888V31.503H85.2542Z" fill="#BB5FB3"/>
<path d="M93.6896 27.7061C93.5142 27.531 93.4485 27.334 93.4485 27.0933C93.4485 26.8525 93.5361 26.6555 93.6896 26.5023C93.865 26.3491 94.0622 26.2616 94.2814 26.2616C94.5226 26.2616 94.7199 26.3491 94.8733 26.5023C95.0487 26.6555 95.1144 26.8744 95.1144 27.0933C95.1144 27.334 95.0268 27.531 94.8733 27.7061C94.6979 27.8812 94.5007 27.9687 94.2814 27.9687C94.0403 27.9469 93.843 27.8812 93.6896 27.7061Z" fill="#BB5FB3"/>
<path d="M59.9109 1.19687V14.6673C59.9109 15.7736 59.0078 16.6702 57.8934 16.6702V3.19977C57.8955 2.09347 58.7987 1.19687 59.9109 1.19687Z" fill="white"/>
<path d="M65.7695 4.65915V5.61781H69.0048V7.2655H65.8126V14.6673C65.8126 15.7736 64.9094 16.668 63.7972 16.668V7.2655H61.9069V5.61781H63.7972V4.63775C63.7972 3.54001 64.1184 2.67123 64.7629 2.03141C65.4074 1.39159 66.3105 1.07275 67.4723 1.07275C67.9206 1.07275 68.3409 1.12839 68.7332 1.23966C69.1255 1.35094 69.4618 1.51142 69.742 1.71899L69.1342 3.24043C68.6729 2.89377 68.1534 2.7183 67.5801 2.7183C66.3708 2.72044 65.7695 3.36668 65.7695 4.65915Z" fill="white"/>
<path d="M79.42 5.95377C80.2952 6.75621 80.7327 7.95025 80.7327 9.54016V14.6416C80.7327 15.7607 79.8188 16.668 78.6915 16.668V15.1081C78.3315 15.658 77.8207 16.0774 77.1546 16.3663C76.4886 16.6552 75.6997 16.8007 74.7879 16.8007C73.4559 16.8007 72.3911 16.4819 71.5914 15.842C70.7917 15.2044 70.3908 14.3655 70.3908 13.3256C70.3908 12.2856 70.7723 11.4511 71.5353 10.8198C72.2984 10.1885 73.5098 9.87398 75.1695 9.87398H78.5794V9.45029C78.5794 8.53015 78.31 7.824 77.7711 7.33397C77.2322 6.84395 76.439 6.6 75.3936 6.6C74.6909 6.6 74.0034 6.71555 73.3287 6.94452C72.6562 7.17562 72.0871 7.48376 71.6237 7.86894C71.0611 6.86534 71.5547 5.60711 72.6476 5.23049C72.7381 5.1984 72.8308 5.16844 72.9235 5.14062C73.777 4.8817 74.6802 4.75117 75.6393 4.75117C77.284 4.75117 78.5449 5.15132 79.42 5.95377ZM77.2775 14.6073C77.8746 14.2436 78.31 13.7279 78.5794 13.0602V11.4125H75.2578C73.4322 11.4125 72.5204 12.0224 72.5204 13.24C72.5204 13.8349 72.7532 14.3013 73.2166 14.6437C73.68 14.9861 74.3224 15.1573 75.1457 15.1573C75.9691 15.153 76.6804 14.9711 77.2775 14.6073Z" fill="white"/>
<path d="M98.2718 9.95316C98.7955 10.6144 99.0563 11.4489 99.0563 12.4589C99.0563 13.8113 98.5433 14.8491 97.5195 15.5767C96.4957 16.3042 95.0019 16.668 93.0426 16.668H85.548V2.74612C85.548 1.82384 86.3003 1.07703 87.2293 1.07703H92.5921C94.3876 1.07703 95.7736 1.43439 96.7543 2.14696C97.7329 2.85953 98.2243 3.84815 98.2243 5.11066C98.2243 5.92809 98.0347 6.6321 97.6531 7.22698C97.2716 7.82186 96.7586 8.27337 96.1163 8.58579C97.0302 8.83401 97.748 9.29194 98.2718 9.95316ZM87.794 2.88093V7.87108H92.3938C93.5448 7.87108 94.4307 7.65923 95.0536 7.23554C95.6744 6.81185 95.9848 6.19343 95.9848 5.376C95.9848 4.55858 95.6744 3.93802 95.0536 3.51647C94.4329 3.09278 93.547 2.88093 92.3938 2.88093H87.794ZM95.8253 14.2414C96.4676 13.8263 96.7909 13.1715 96.7909 12.2813C96.7909 10.5438 95.5128 9.67498 92.9542 9.67498H87.794V14.8663H92.9542C94.2259 14.8641 95.183 14.6566 95.8253 14.2414Z" fill="white"/>
<path d="M101.563 3.28323C101.307 3.035 101.179 2.73542 101.179 2.37807C101.179 2.02071 101.307 1.71685 101.563 1.46221C101.82 1.20756 102.141 1.08131 102.529 1.08131C102.915 1.08131 103.238 1.20115 103.492 1.44081C103.749 1.68047 103.876 1.98005 103.876 2.33741C103.876 2.7076 103.749 3.02002 103.492 3.27467C103.236 3.52931 102.915 3.65556 102.529 3.65556C102.139 3.65556 101.817 3.53145 101.563 3.28323ZM103.522 5.75476V14.6908C103.522 15.7821 102.63 16.668 101.531 16.668V7.73199C101.531 6.64066 102.423 5.75476 103.522 5.75476Z" fill="white"/>
<path d="M112.293 14.9519C112.123 14.9818 111.942 14.9989 111.756 14.9989C111.159 14.9989 110.7 14.8277 110.377 14.4854C110.058 14.1451 109.894 13.653 109.894 13.0153V6.6214H112.431L111.407 4.86244H109.896V2.27963C108.709 2.27963 107.743 3.23401 107.743 4.41735V4.86244H105.725V6.6214H107.743V13.103C107.743 14.2906 108.075 15.2065 108.732 15.8442C109.161 16.2615 109.707 16.5396 110.364 16.6787C110.715 16.76 111.097 16.7986 111.513 16.7986C112.009 16.7986 112.487 16.7279 112.95 16.5889C113.414 16.4455 113.804 16.2401 114.114 15.9747C113.804 15.2728 113.056 14.8213 112.293 14.9519Z" fill="white"/>
<path d="M53.4143 16.668H55.7099L47.4114 1.07489H46.8445C45.7775 1.07489 44.7946 1.63982 44.2601 2.55567L36.0542 16.668H38.3519L40.6195 12.7692H51.3688L53.4143 16.668ZM41.6584 10.9824L46.2711 3.05212L50.4333 10.9824H41.6584Z" fill="white"/>
<path d="M25.3819 25.8302H0L13.7879 2.07892C14.3484 1.12377 15.3572 0.50293 16.4782 0.50293H16.4942C16.8785 0.50293 17.2629 0.518849 17.6472 0.534768L4.41981 23.315H23.9246L25.3819 25.8302Z" fill="white"/>
<path d="M31.0828 29.1095H3.47498C2.338 29.1095 1.28109 28.4887 0.720608 27.5017C0.544457 27.1993 0.384319 26.8809 0.224181 26.5625H26.679L16.9106 9.76784L18.3678 7.25263L31.0828 29.1095Z" fill="white"/>
<path d="M32.1718 27.6609C31.9956 27.9634 31.8034 28.2658 31.6113 28.5524L18.3839 5.78807L8.63147 22.5827H5.70095L18.3999 0.725796L32.2038 24.4771C32.7803 25.4641 32.7483 26.6739 32.1718 27.6609Z" fill="white"/>
</svg>
