<svg width="40" height="40" viewBox="0 0 40 40" fill="none" xmlns="http://www.w3.org/2000/svg">
<rect width="40" height="40" rx="14" fill="#472C76"/>
<path d="M16.2687 12C12.6231 13.2388 10 16.6907 10 20.7553C10 25.861 14.139 30 19.2446 30C23.3094 30 26.7614 27.3767 28 23.7308C27.0471 23.8297 25.7821 23.9116 24.2052 23.9116C22.2933 23.9116 20.8398 23.7912 19.8453 23.666C17.9972 23.4333 16.5662 22.0024 16.3335 20.1542C16.2083 19.1597 16.0879 17.7062 16.0879 15.7943C16.0879 14.2178 16.1698 12.9529 16.2687 12Z" fill="white"/>
<path d="M20.505 10.0176C19.3454 9.86725 18.3548 10.6982 18.2163 11.8207C18.1067 12.7091 18 14.018 18 15.7473C18 17.5119 18.1111 18.8388 18.223 19.7278C18.3594 20.811 19.189 21.6406 20.2722 21.777C21.1612 21.8889 22.4881 22 24.2527 22C25.982 22 27.2909 21.8933 28.1793 21.7837C29.3018 21.6452 30.1327 20.6546 29.9824 19.495C29.3429 14.5627 25.4373 10.6571 20.505 10.0176Z" fill="#B78DFF"/>
</svg>
