<svg width="40" height="40" viewBox="0 0 40 40" fill="none" xmlns="http://www.w3.org/2000/svg">
<rect width="40" height="40" rx="14" fill="#472C76"/>
<path d="M10 19C10 19.5523 10.51 20 11.139 20C11.7681 20 12.2781 19.5523 12.2781 19C12.2781 17.0617 13.1581 15.3114 14.5787 14.0448C15.9992 12.7784 17.9542 12 20.112 12C22.0133 12 23.7571 12.6043 25.1165 13.6142C24.8884 13.8601 24.6804 14.1087 24.4998 14.3535C24.0978 14.8984 24.4128 15.6118 25.1091 15.7918C26.3682 16.1173 27.9704 16.286 28.771 16.3559C29.4793 16.4178 30.0687 15.8968 29.9935 15.2754C29.911 14.593 29.7172 13.256 29.351 12.094C29.157 11.4782 28.3367 11.1746 27.6983 11.5398C27.3731 11.7258 27.0422 11.9444 26.7174 12.1852C24.9477 10.8256 22.6385 10 20.112 10C17.3142 10 14.7828 11.0124 12.9556 12.6415C11.1287 14.2703 10 16.52 10 19Z" fill="white"/>
<path d="M30 21C30 20.4477 29.49 20 28.861 20C28.2319 20 27.7219 20.4477 27.7219 21C27.7219 22.9383 26.8419 24.6886 25.4212 25.9552C24.0009 27.2216 22.0458 28 19.8879 28C17.9868 28 16.2429 27.3957 14.8835 26.3858C15.1115 26.1399 15.3196 25.8913 15.5003 25.6464C15.9022 25.1016 15.5872 24.3882 14.8909 24.2082C13.6319 23.8827 12.0296 23.714 11.229 23.6441C10.5207 23.5822 9.9313 24.1032 10.0065 24.7246C10.0891 25.407 10.2828 26.744 10.649 27.906C10.843 28.5218 11.6633 28.8254 12.3017 28.4602C12.6269 28.2742 12.9579 28.0556 13.2827 27.8148C15.0523 29.1744 17.3615 30 19.8879 30C22.6858 30 25.2172 28.9876 27.0445 27.3585C28.8713 25.7297 30 23.48 30 21Z" fill="white"/>
<path fill-rule="evenodd" clip-rule="evenodd" d="M18.8785 15C18.7497 15 18.6172 15.0122 18.4883 15.0347C18.3204 15.0641 18.2146 15.2037 18.2146 15.3506V16.162C17.999 16.1933 17.7991 16.2335 17.615 16.283L17.6141 16.2832C17.4366 16.3323 17.2891 16.4003 17.179 16.4916C17.0545 16.595 17 16.7405 17 16.9094V22.5566C17 22.7475 17.0651 22.9144 17.1981 23.0501C17.3288 23.1835 17.5178 23.2794 17.7532 23.3445L17.7548 23.3449C17.8995 23.3829 18.0528 23.4156 18.2146 23.4432V24.0291C18.2146 24.3568 18.2652 24.615 18.3952 24.7707L18.3975 24.7733C18.5381 24.9319 18.7536 25 19.0146 25C19.1415 25 19.2979 24.9768 19.4356 24.9426C19.5897 24.9042 19.6785 24.7718 19.6785 24.6376V23.5955C19.8408 23.6006 19.994 23.6032 20.1383 23.6032C20.2637 23.6032 20.3862 23.6013 20.5057 23.5976V24.0291C20.5057 24.3568 20.5563 24.615 20.6864 24.7707L20.6886 24.7733C20.8293 24.9319 21.0447 25 21.3057 25C21.4327 25 21.589 24.9768 21.7267 24.9426C21.8809 24.9042 21.9697 24.7718 21.9697 24.6376V23.4261C22.3579 23.3373 22.6958 23.2146 22.9817 23.0563C23.6603 22.6808 24 22.1004 24 21.3325C24 20.9068 23.8562 20.5345 23.5679 20.2209C23.3339 19.9663 23.009 19.7678 22.5997 19.6217C22.9095 19.4796 23.1559 19.3039 23.334 19.092C23.5745 18.8172 23.694 18.492 23.694 18.122C23.694 17.771 23.6136 17.4606 23.4484 17.1945C23.2831 16.9284 23.0368 16.713 22.7148 16.5469C22.4957 16.4312 22.247 16.3362 21.9697 16.2614V15.7208C21.9697 15.4807 21.9135 15.2803 21.7642 15.16C21.6273 15.0447 21.419 15 21.1696 15C21.0408 15 20.9083 15.0122 20.7794 15.0347C20.6115 15.0641 20.5057 15.2037 20.5057 15.3506V16.0568C20.3601 16.0507 20.2098 16.0476 20.0548 16.0476C19.928 16.0476 19.8026 16.0491 19.6785 16.0521V15.7208C19.6785 15.4807 19.6223 15.2803 19.473 15.16C19.3362 15.0447 19.1278 15 18.8785 15ZM18.9919 17.4896C19.1139 17.4734 19.2534 17.4593 19.4104 17.4474C19.6204 17.4323 19.8398 17.4247 20.0687 17.4247C20.6269 17.4247 21.026 17.5003 21.2818 17.6379C21.5277 17.77 21.6464 17.9614 21.6464 18.2259C21.6464 18.4924 21.538 18.6931 21.32 18.8405L21.3183 18.8417C21.1076 18.9897 20.7678 19.0733 20.2774 19.0733H18.9919V17.4896ZM18.9919 22.1205V20.3927H20.5C20.9886 20.3927 21.3394 20.4795 21.5701 20.6368L21.5717 20.6379C21.8088 20.794 21.9247 21.0026 21.9247 21.2747C21.9247 21.5985 21.7837 21.8259 21.4992 21.9745C21.2089 22.1232 20.7914 22.203 20.2357 22.203C19.9974 22.203 19.7543 22.1954 19.5065 22.1802C19.3116 22.1677 19.1402 22.1477 18.9919 22.1205Z" fill="#B78DFF"/>
</svg>
