<svg width="40" height="40" viewBox="0 0 40 40" fill="none" xmlns="http://www.w3.org/2000/svg">
<rect width="40" height="40" rx="14" fill="#472C76"/>
<path d="M26.6773 27.2529L8 27.2574L18.1443 10.3209C18.5539 9.64012 19.3003 9.19995 20.1194 9.19995H20.1321C20.4167 9.19995 20.6982 9.20757 20.9781 9.22737L11.2528 25.4617H25.6051L26.6773 27.2529Z" fill="url(#paint0_linear_2662_20967)"/>
<path d="M30.8679 29.5954L10.5603 29.5999C9.71902 29.5999 8.94733 29.1583 8.52985 28.4531C8.3986 28.2338 8.27684 28.0114 8.1614 27.7845L27.6246 27.7799L20.4484 15.8086L21.5222 14.0175L30.8679 29.5954Z" fill="url(#paint1_linear_2662_20967)"/>
<path d="M31.2569 29.1947C31.4024 28.9861 31.5399 28.7713 31.6728 28.5551C32.0997 27.8529 32.1124 26.9893 31.6902 26.2857L21.5332 9.35528L12.1985 24.9347H14.346L21.5205 12.9634L31.2569 29.1947Z" fill="url(#paint2_linear_2662_20967)"/>
<defs>
<linearGradient id="paint0_linear_2662_20967" x1="20.4941" y1="9.19995" x2="20.4941" y2="29.6" gradientUnits="userSpaceOnUse">
<stop stop-color="white"/>
<stop offset="1" stop-color="#B78DFF"/>
</linearGradient>
<linearGradient id="paint1_linear_2662_20967" x1="20.4941" y1="9.19995" x2="20.4941" y2="29.6" gradientUnits="userSpaceOnUse">
<stop stop-color="white"/>
<stop offset="1" stop-color="#B78DFF"/>
</linearGradient>
<linearGradient id="paint2_linear_2662_20967" x1="20.4941" y1="9.19995" x2="20.4941" y2="29.6" gradientUnits="userSpaceOnUse">
<stop stop-color="white"/>
<stop offset="1" stop-color="#B78DFF"/>
</linearGradient>
</defs>
</svg>
