<svg width="40" height="40" viewBox="0 0 40 40" fill="none" xmlns="http://www.w3.org/2000/svg">
<rect width="40" height="40" rx="14" fill="#472C76"/>
<path fill-rule="evenodd" clip-rule="evenodd" d="M23.8629 17.1977C25.6505 17.1577 26.2356 17.0556 27 17V27C26.3102 26.9569 25.7625 26.9358 23.8629 26.9049V17.1977ZM18.5098 17.1842C19.1453 17.1927 19.2472 17.1977 19.9998 17.1977C20.7527 17.1977 21.1258 17.1927 21.7614 17.1842V26.8566C21.1319 26.8506 20.7595 26.8471 20 26.8471C19.2425 26.8471 19.1412 26.8506 18.5098 26.8565V17.1842ZM13 17.0001C13.7645 17.0556 14.3948 17.1239 16.1824 17.1639V26.8709C14.3304 26.9007 13.7248 26.9527 13 26.9951V17.0001Z" fill="white"/>
<path d="M11.2993 29.8583C12.2296 29.9059 14.735 30 20 30C25.265 30 27.7704 29.9059 28.7008 29.8583C29.2325 29.8311 29.7275 29.4758 29.8686 28.912C29.9291 28.6703 30 28.3253 30 28C30 27.6747 29.9291 27.3297 29.8686 27.088C29.7275 26.5242 29.2325 26.1689 28.7008 26.1417C27.7704 26.0941 25.265 26 20 26C14.8713 26 12.2887 26.0893 11.2639 26.1379C10.6293 26.1679 10.0988 26.6515 10.0378 27.3024C10.018 27.5132 10 27.7671 10 28C10 28.3253 10.0709 28.6703 10.1314 28.912C10.2725 29.4758 10.7675 29.8311 11.2993 29.8583Z" fill="#B78DFF"/>
<path fill-rule="evenodd" clip-rule="evenodd" d="M19.3014 10.0827C19.7603 9.97242 20.2396 9.97242 20.6985 10.0827C24.1139 10.9036 27.7677 13.0669 29.1311 13.923C29.6888 14.2732 30 14.8627 30 15.4788V16.3732C30 17.144 29.3768 17.7944 28.5536 17.8363C27.3122 17.8997 24.6164 18 19.9999 18C15.3838 18 12.688 17.8997 11.4465 17.8363C10.6231 17.7944 9.99993 17.1438 10 16.373L10 15.4793C9.99999 14.8631 10.3111 14.2731 10.8691 13.9227C12.2328 13.0665 15.8863 10.9036 19.3014 10.0827Z" fill="#B78DFF"/>
<path fill-rule="evenodd" clip-rule="evenodd" d="M20 15C20.5523 15 21 14.5523 21 14C21 13.4477 20.5523 13 20 13C19.4477 13 19 13.4477 19 14C19 14.5523 19.4477 15 20 15Z" fill="white"/>
</svg>
