<svg width="40" height="41" viewBox="0 0 40 41" fill="none" xmlns="http://www.w3.org/2000/svg">
<rect y="0.00390625" width="40" height="40" rx="14" fill="#472C76"/>
<path d="M21.1665 19.6806L21.0775 19.6365C20.5389 20.583 19.9313 21.8974 19.5076 22.8556C19.1513 23.6611 18.2605 24.2219 17.3247 23.9219C17.0601 23.837 16.7741 23.7287 16.482 23.5905C16.1973 23.4558 15.9405 23.3098 15.715 23.1661C14.8972 22.6451 14.8118 21.6307 15.3017 20.8826C16.236 19.4562 17.4177 17.7709 18.588 16.3389C19.2387 15.5427 20.4055 15.3912 21.2961 15.8989C22.272 16.4551 23.5606 17.1645 24.4943 17.5875C25.256 16.5613 26.3956 14.7985 27.0219 13.8154C27.3288 13.3336 27.8923 12.8566 28.5921 13.0467C28.9153 13.1345 29.2465 13.2809 29.5208 13.4584C30.0895 13.8264 30.0751 14.5027 29.8713 15.0031C29.4469 16.0458 28.5027 18.0989 26.8271 20.4959C26.2738 21.2873 25.2006 21.5632 24.3001 21.1607C23.4408 20.7766 22.5838 20.37 21.942 20.0596C21.6211 19.9044 21.3537 19.7731 21.1665 19.6806Z" fill="#B78DFF"/>
<path d="M12.6667 10.0039C13.2803 10.0039 13.7778 10.5014 13.7778 11.115C13.7778 15.7735 13.8332 20.2113 13.8888 23.4851C13.9052 24.4568 13.9217 25.3257 13.9367 26.0672C14.6782 26.0823 15.5472 26.0987 16.5188 26.1152C19.7926 26.1707 24.2304 26.2261 28.8889 26.2261C29.5025 26.2261 30 26.7236 30 27.3372C30 27.9509 29.5025 28.4484 28.8889 28.4484C24.214 28.4484 19.7629 28.3927 16.4812 28.3371C15.5476 28.3212 14.7084 28.3054 13.9855 28.2909L13.9901 28.4846C13.9932 28.6108 13.9964 28.737 13.9996 28.8632C14.0158 29.4767 13.5316 29.9874 12.9181 30.0035C12.3047 30.0197 11.7943 29.5353 11.7782 28.9219C11.7749 28.7942 11.7717 28.6665 11.7686 28.5388L11.7614 28.2425L11.4651 28.2353C11.3375 28.2322 11.2099 28.229 11.0823 28.2258L11.0819 28.2257C10.4685 28.2096 9.98425 27.6992 10.0004 27.0858C10.0165 26.4724 10.527 25.9881 11.1404 26.0043C11.2667 26.0076 11.393 26.0107 11.5193 26.0138L11.713 26.0184C11.6985 25.2956 11.6827 24.4564 11.6668 23.5228C11.6112 20.241 11.5556 15.7899 11.5556 11.115C11.5556 10.5014 12.053 10.0039 12.6667 10.0039Z" fill="white"/>
</svg>
