<svg width="40" height="40" viewBox="0 0 40 40" fill="none" xmlns="http://www.w3.org/2000/svg">
<rect width="40" height="40" rx="14" fill="#472C76"/>
<path d="M14.0475 25.972L10.4054 23.995L11.2233 23.1772L14.4529 23.6631L20.2152 17.9013L10 12.3755L11.0358 11.312L23.6018 14.4998L27.6881 10.4026C27.9566 10.1342 28.275 10 28.6434 10C29.0109 10 29.3289 10.1342 29.5973 10.4026C29.8658 10.6711 30 10.9941 30 11.3717C30 11.7475 29.8658 12.0701 29.5973 12.3394L25.5429 16.4449L28.7059 28.9835L27.6701 30.0456L22.1161 19.8312L16.4066 25.5389L16.8648 28.796L16.0219 29.6402L14.0475 25.972Z" fill="white"/>
</svg>
