<svg width="40" height="40" viewBox="0 0 40 40" fill="none" xmlns="http://www.w3.org/2000/svg">
<rect width="40" height="40" rx="14" fill="#472C76"/>
<path fill-rule="evenodd" clip-rule="evenodd" d="M11 14C11.0814 13.9179 11.1684 13.8405 11.2607 13.7682C11.2571 13.7701 11.2536 13.7719 11.2501 13.7737C11.1425 13.8293 11.0576 13.9083 11 14ZM12.3751 13.2226C11.2607 13.7682 12.7999 14.0139 13.0245 14C14.3598 13.9171 16.4108 14 19.2802 14C22.1495 14 24.2005 13.9171 25.5359 14C25.6945 14.0098 26.5 14 26 13.1798C25.5958 12.3513 25.2139 11.6994 24.8915 11.2053C24.2394 10.206 22.9587 9.81787 21.7749 10.0792C18.5557 10.7897 15.1039 11.9529 12.3751 13.2226Z" fill="white"/>
<path d="M19 29C16.1924 29 14.1855 28.9112 12.8789 28.8222C11.4396 28.7241 10.3042 27.6473 10.1861 26.2181C10.0904 25.0602 10 23.3458 10 21C10 18.6542 10.0904 16.9398 10.1861 15.7819C10.3042 14.3527 11.4396 13.2759 12.8789 13.1778C14.1855 13.0888 16.1924 13 19 13C21.8076 13 23.8145 13.0888 25.1211 13.1778C26.5604 13.2759 27.6958 14.3527 27.8139 15.7819C27.9096 16.9398 28 18.6542 28 21C28 23.3458 27.9096 25.0602 27.8139 26.2181C27.6958 27.6473 26.5604 28.7241 25.1211 28.8222C23.8145 28.9112 21.8076 29 19 29Z" fill="#B78DFF"/>
<path fill-rule="evenodd" clip-rule="evenodd" d="M23.0282 22.3386C23.0695 23.2511 23.7878 23.9313 24.7196 23.9679C25.194 23.9865 25.7843 24 26.5 24C27.2158 24 27.806 23.9865 28.2804 23.9679C29.2122 23.9313 29.9305 23.2511 29.9718 22.3386C29.9886 21.967 30 21.5225 30 21C30 20.4775 29.9886 20.033 29.9718 19.6614C29.9305 18.7489 29.2122 18.0687 28.2804 18.0321C27.806 18.0135 27.2158 18 26.5 18C25.7843 18 25.194 18.0135 24.7196 18.0321C23.7878 18.0687 23.0695 18.7489 23.0282 19.6614C23.0114 20.033 23 20.4775 23 21C23 21.5225 23.0114 21.967 23.0282 22.3386ZM26.0625 19.9286C26.4249 19.9286 26.7188 20.2164 26.7188 20.5714V21.4286C26.7188 21.7836 26.4249 22.0714 26.0625 22.0714C25.7001 22.0714 25.4062 21.7836 25.4062 21.4286V20.5714C25.4062 20.2164 25.7001 19.9286 26.0625 19.9286Z" fill="white"/>
</svg>
