<svg width="48" height="48" viewBox="0 0 48 48" fill="none" xmlns="http://www.w3.org/2000/svg">
<rect width="48" height="48" rx="16.8" fill="#472C76"/>
<path fill-rule="evenodd" clip-rule="evenodd" d="M13.1992 16.8C13.2968 16.7015 13.4013 16.6086 13.512 16.5219C13.5078 16.5241 13.5036 16.5262 13.4994 16.5284C13.3702 16.5952 13.2684 16.69 13.1992 16.8ZM14.8494 15.8672C13.512 16.5219 15.3591 16.8167 15.6286 16.8C17.231 16.7006 19.6922 16.8 23.1355 16.8C26.5787 16.8 29.0399 16.7006 30.6423 16.8C30.8326 16.8118 31.7992 16.8 31.1992 15.8158C30.7142 14.8215 30.2559 14.0393 29.869 13.4463C29.0865 12.2472 27.5497 11.7814 26.1291 12.095C22.2661 12.9476 18.1239 14.3434 14.8494 15.8672Z" fill="white"/>
<path d="M22.8 34.7996C19.4308 34.7996 17.0226 34.6931 15.4547 34.5862C13.7275 34.4685 12.3651 33.1764 12.2233 31.4613C12.1084 30.0718 12 28.0146 12 25.1996C12 22.3846 12.1084 20.3274 12.2233 18.9379C12.3651 17.2228 13.7275 15.9307 15.4547 15.813C17.0226 15.7062 19.4308 15.5996 22.8 15.5996C26.1692 15.5996 28.5774 15.7062 30.1454 15.813C31.8725 15.9307 33.235 17.2228 33.3767 18.9379C33.4916 20.3274 33.6 22.3847 33.6 25.1996C33.6 28.0146 33.4916 30.0718 33.3767 31.4613C33.235 33.1764 31.8725 34.4685 30.1454 34.5862C28.5774 34.6931 26.1691 34.7996 22.8 34.7996Z" fill="#B78DFF"/>
<path fill-rule="evenodd" clip-rule="evenodd" d="M27.6354 26.8059C27.6849 27.9009 28.5469 28.7172 29.665 28.7611C30.2343 28.7835 30.9427 28.7996 31.8016 28.7996C32.6605 28.7996 33.3688 28.7835 33.9381 28.7611C35.0562 28.7172 35.9182 27.9009 35.9678 26.8059C35.9879 26.36 36.0016 25.8266 36.0016 25.1996C36.0016 24.5726 35.9879 24.0392 35.9678 23.5933C35.9182 22.4983 35.0562 21.682 33.9381 21.6381C33.3688 21.6158 32.6605 21.5996 31.8016 21.5996C30.9427 21.5996 30.2343 21.6158 29.665 21.6381C28.5469 21.682 27.6849 22.4983 27.6354 23.5933C27.6152 24.0392 27.6016 24.5726 27.6016 25.1996C27.6016 25.8266 27.6152 26.36 27.6354 26.8059ZM31.2766 23.9139C31.7115 23.9139 32.0641 24.2593 32.0641 24.6853V25.7139C32.0641 26.1399 31.7115 26.4853 31.2766 26.4853C30.8417 26.4853 30.4891 26.1399 30.4891 25.7139V24.6853C30.4891 24.2593 30.8417 23.9139 31.2766 23.9139Z" fill="white"/>
</svg>
