<svg width="20" height="20" viewBox="0 0 20 20" fill="none" xmlns="http://www.w3.org/2000/svg">
<g id="bx:support">
<path id="Vector" d="M9.99935 1.66797C5.40435 1.66797 1.66602 5.4063 1.66602 10.0013V13.4538C1.66602 14.3071 2.41352 15.0013 3.33268 15.0013H4.16602C4.38703 15.0013 4.59899 14.9135 4.75527 14.7572C4.91155 14.6009 4.99935 14.389 4.99935 14.168V9.88214C4.99935 9.66112 4.91155 9.44916 4.75527 9.29288C4.59899 9.1366 4.38703 9.0488 4.16602 9.0488H3.40935C3.87268 5.8238 6.64768 3.33464 9.99935 3.33464C13.351 3.33464 16.126 5.8238 16.5893 9.0488H15.8327C15.6117 9.0488 15.3997 9.1366 15.2434 9.29288C15.0871 9.44916 14.9993 9.66112 14.9993 9.88214V15.0013C14.9993 15.9205 14.2518 16.668 13.3327 16.668H11.666V15.8346H8.33268V18.3346H13.3327C15.171 18.3346 16.666 16.8396 16.666 15.0013C17.5852 15.0013 18.3327 14.3071 18.3327 13.4538V10.0013C18.3327 5.4063 14.5943 1.66797 9.99935 1.66797Z" fill="white"/>
</g>
</svg>
