<svg width="16" height="16" viewBox="0 0 16 16" fill="none" xmlns="http://www.w3.org/2000/svg">
<g id="Social Network" clip-path="url(#clip0_7755_160473)">
<path id="telegram" d="M0.241656 7.47732C1.87849 6.45671 3.70566 5.6049 5.41287 4.74873C8.34993 3.3464 11.2987 1.96837 14.2772 0.685436C14.4676 0.613582 14.708 0.542249 14.9485 0.513383C15.9103 0.39795 15.9909 1.71237 15.887 2.67546C15.7912 3.56418 15.6586 4.45071 15.5564 5.33723C15.156 8.34558 14.6932 11.3436 14.2419 14.3421C14.0864 15.3408 12.9811 15.8578 12.2739 15.2187C11.0653 14.2945 9.85005 13.3768 8.64541 12.4455C7.6688 11.6906 6.6109 10.5818 7.36594 9.6052C7.45153 9.4945 7.54339 9.39486 7.6346 9.31098C8.65193 8.17609 9.714 7.16523 10.7277 6.06715C11.4935 5.23762 11.7118 4.21679 10.7974 4.87903C8.88102 6.37396 7.0115 7.96015 4.99099 9.27399C3.95892 9.91711 2.75602 9.36751 1.72441 9.00864C0.799442 8.57514 -0.555976 8.1384 0.241562 7.47739L0.241656 7.47732Z" fill="#2AABEE"/>
</g>
<defs>
<clipPath id="clip0_7755_160473">
<rect width="16" height="16" fill="white"/>
</clipPath>
</defs>
</svg>
