<svg width="64" height="64" viewBox="0 0 64 64" fill="none" xmlns="http://www.w3.org/2000/svg">
<g clip-path="url(#clip0_1427_94043)">
<path d="M0.25 12.4444C0.25 5.70964 5.70964 0.25 12.4444 0.25H51.5556C58.2904 0.25 63.75 5.70964 63.75 12.4444V51.5556C63.75 58.2904 58.2904 63.75 51.5556 63.75H12.4444C5.70964 63.75 0.25 58.2904 0.25 51.5556V12.4444Z" fill="url(#paint0_linear_1427_94043)" stroke="url(#paint1_linear_1427_94043)" stroke-width="0.5"/>
<path d="M45.9269 28.2771C46.5092 24.2804 43.5434 22.1351 39.492 20.7053L40.8059 15.2969L37.5943 14.4763L36.3082 19.7392C35.4684 19.5276 34.5993 19.3236 33.7419 19.118L35.028 13.8206L31.8164 13L30.5069 18.4039L24.0311 16.7626L23.1737 20.2792C23.1737 20.2792 25.5571 20.8358 25.5059 20.8718C26.8095 21.2064 27.0436 22.0916 27.0027 22.7877L23.396 37.6027C23.2424 38.0123 22.8357 38.6169 21.9271 38.3873C21.9607 38.4339 19.5948 37.7842 19.5948 37.7842L18 41.5589L24.4641 43.2347L23.1385 48.7076L26.3443 49.5222L27.6582 44.1138C28.539 44.3539 29.3847 44.5834 30.2187 44.7934L28.9048 50.1794L32.1163 51L33.4478 45.5376C38.9229 46.6042 43.0387 46.1767 44.7696 41.1013C46.1698 37.0101 44.7008 34.6547 41.8199 33.1139C43.918 32.6159 45.5011 31.2041 45.9181 28.2786L45.9269 28.2771ZM38.5849 38.8269C37.5899 42.9121 30.8741 40.7022 28.697 40.1516L30.463 32.9024C32.6401 33.459 39.6193 34.5602 38.5849 38.8269ZM39.5798 28.2201C38.6771 31.9407 33.0864 30.0489 31.275 29.5853L32.8699 23.0097C34.6812 23.4733 40.5221 24.3404 39.5798 28.2201Z" fill="#533493"/>
<path d="M45.9269 28.2771C46.5092 24.2804 43.5434 22.1351 39.492 20.7053L40.8059 15.2969L37.5943 14.4763L36.3082 19.7392C35.4684 19.5276 34.5993 19.3236 33.7419 19.118L35.028 13.8206L31.8164 13L30.5069 18.4039L24.0311 16.7626L23.1737 20.2792C23.1737 20.2792 25.5571 20.8358 25.5059 20.8718C26.8095 21.2064 27.0436 22.0916 27.0027 22.7877L23.396 37.6027C23.2424 38.0123 22.8357 38.6169 21.9271 38.3873C21.9607 38.4339 19.5948 37.7842 19.5948 37.7842L18 41.5589L24.4641 43.2347L23.1385 48.7076L26.3443 49.5222L27.6582 44.1138C28.539 44.3539 29.3847 44.5834 30.2187 44.7934L28.9048 50.1794L32.1163 51L33.4478 45.5376C38.9229 46.6042 43.0387 46.1767 44.7696 41.1013C46.1698 37.0101 44.7008 34.6547 41.8199 33.1139C43.918 32.6159 45.5011 31.2041 45.9181 28.2786L45.9269 28.2771ZM38.5849 38.8269C37.5899 42.9121 30.8741 40.7022 28.697 40.1516L30.463 32.9024C32.6401 33.459 39.6193 34.5602 38.5849 38.8269ZM39.5798 28.2201C38.6771 31.9407 33.0864 30.0489 31.275 29.5853L32.8699 23.0097C34.6812 23.4733 40.5221 24.3404 39.5798 28.2201Z" fill="url(#paint2_linear_1427_94043)"/>
<g filter="url(#filter0_f_1427_94043)">
<ellipse cx="46.6087" cy="19.4969" rx="12.4444" ry="4.44444" transform="rotate(45 46.6087 19.4969)" fill="white" fill-opacity="0.64"/>
</g>
</g>
<defs>
<filter id="filter0_f_1427_94043" x="13.2622" y="-13.8495" width="66.6929" height="66.6929" filterUnits="userSpaceOnUse" color-interpolation-filters="sRGB">
<feFlood flood-opacity="0" result="BackgroundImageFix"/>
<feBlend mode="normal" in="SourceGraphic" in2="BackgroundImageFix" result="shape"/>
<feGaussianBlur stdDeviation="12" result="effect1_foregroundBlur_1427_94043"/>
</filter>
<linearGradient id="paint0_linear_1427_94043" x1="32" y1="0" x2="32" y2="64" gradientUnits="userSpaceOnUse">
<stop stop-color="#24203D"/>
<stop offset="1" stop-color="#1C1525"/>
</linearGradient>
<linearGradient id="paint1_linear_1427_94043" x1="32" y1="0" x2="32" y2="64" gradientUnits="userSpaceOnUse">
<stop stop-color="white" stop-opacity="0.24"/>
<stop offset="1" stop-color="white" stop-opacity="0.04"/>
</linearGradient>
<linearGradient id="paint2_linear_1427_94043" x1="46" y1="13" x2="9.70557" y2="39.7433" gradientUnits="userSpaceOnUse">
<stop stop-color="white"/>
<stop offset="1" stop-color="#9F6BFC"/>
</linearGradient>
<clipPath id="clip0_1427_94043">
<rect width="64" height="64" fill="white"/>
</clipPath>
</defs>
</svg>
