<svg width="64" height="64" viewBox="0 0 64 64" fill="none" xmlns="http://www.w3.org/2000/svg">
<g clip-path="url(#clip0_1427_94047)">
<path d="M0.25 12.4444C0.25 5.70964 5.70964 0.25 12.4444 0.25H51.5556C58.2904 0.25 63.75 5.70964 63.75 12.4444V51.5556C63.75 58.2904 58.2904 63.75 51.5556 63.75H12.4444C5.70964 63.75 0.25 58.2904 0.25 51.5556V12.4444Z" fill="url(#paint0_linear_1427_94047)" stroke="url(#paint1_linear_1427_94047)" stroke-width="0.5"/>
<path fill-rule="evenodd" clip-rule="evenodd" d="M32 49C41.3888 49 49 41.3888 49 32C49 22.6112 41.3888 15 32 15C22.6112 15 15 22.6112 15 32C15 41.3888 22.6112 49 32 49ZM32 35C33.1046 35 34 34.2325 34 33.2857V24.7143C34 23.7675 33.1046 23 32 23C30.8954 23 30 23.7675 30 24.7143V33.2857C30 34.2325 30.8954 35 32 35ZM34 40C34 41.1046 33.1046 42 32 42C30.8954 42 30 41.1046 30 40C30 38.8954 30.8954 38 32 38C33.1046 38 34 38.8954 34 40Z" fill="url(#paint2_linear_1427_94047)"/>
<g filter="url(#filter0_f_1427_94047)">
<ellipse cx="46.6087" cy="19.4969" rx="12.4444" ry="4.44444" transform="rotate(45 46.6087 19.4969)" fill="white" fill-opacity="0.64"/>
</g>
</g>
<defs>
<filter id="filter0_f_1427_94047" x="13.2622" y="-13.8495" width="66.6929" height="66.6929" filterUnits="userSpaceOnUse" color-interpolation-filters="sRGB">
<feFlood flood-opacity="0" result="BackgroundImageFix"/>
<feBlend mode="normal" in="SourceGraphic" in2="BackgroundImageFix" result="shape"/>
<feGaussianBlur stdDeviation="12" result="effect1_foregroundBlur_1427_94047"/>
</filter>
<linearGradient id="paint0_linear_1427_94047" x1="32" y1="0" x2="32" y2="64" gradientUnits="userSpaceOnUse">
<stop stop-color="#24203D"/>
<stop offset="1" stop-color="#1C1525"/>
</linearGradient>
<linearGradient id="paint1_linear_1427_94047" x1="32" y1="0" x2="32" y2="64" gradientUnits="userSpaceOnUse">
<stop stop-color="white" stop-opacity="0.24"/>
<stop offset="1" stop-color="white" stop-opacity="0.04"/>
</linearGradient>
<linearGradient id="paint2_linear_1427_94047" x1="49" y1="15" x2="15" y2="49" gradientUnits="userSpaceOnUse">
<stop stop-color="white"/>
<stop offset="1" stop-color="#9F6BFC"/>
</linearGradient>
<clipPath id="clip0_1427_94047">
<rect width="64" height="64" fill="white"/>
</clipPath>
</defs>
</svg>
