<svg width="189" height="24" viewBox="0 0 189 24" fill="none" xmlns="http://www.w3.org/2000/svg">
<path fill-rule="evenodd" clip-rule="evenodd" d="M95.5464 7.87891V6.50391H96.1077L96.4055 7.63978H96.4742L96.7721 6.50391H97.3333V7.87891H97.0355V6.74304H96.9668L96.669 7.87891H96.2108L95.9129 6.74304H95.8442V7.87891H95.5464ZM94.5155 7.87891V6.74304H94V6.50391H95.3288V6.74304H94.8133V7.87891H94.5155Z" fill="white"/>
<path d="M64.0708 17.1352C64.5409 17.6181 65.1579 17.8595 65.9121 17.8595H69.1538V15.385H66.9306C66.4997 15.385 66.2842 15.1436 66.2842 14.6708V8.52486H69.4378V6.05038H66.2842V2.37891H63.3657V6.05038L60.4276 6.05036C59.8987 6.05036 59.458 6.14089 59.0662 6.36218C58.6745 6.58347 58.3709 6.90536 58.2044 7.37812H57.7833V6.05036H54.9039V17.8594L57.8224 17.8695V11.1502C57.8224 10.3052 58.0575 9.6816 58.5374 9.27924C59.0173 8.86683 59.5265 8.54495 60.3688 8.52483L63.3657 8.52486V15.1939C63.3657 16.0086 63.6007 16.6524 64.0708 17.1352Z" fill="white"/>
<path fill-rule="evenodd" clip-rule="evenodd" d="M44.2679 17.4772C45.1788 17.95 46.2071 18.1914 47.353 18.1914C48.4988 18.1914 49.5174 17.95 50.438 17.4772C51.3488 17.0045 52.0638 16.3104 52.5926 15.4051C53.1117 14.4998 53.3761 13.4135 53.3761 12.146V11.7638C53.3761 10.4964 53.1215 9.41004 52.5926 8.50474C52.0638 7.59945 51.3488 6.90539 50.438 6.43262C49.5272 5.95985 48.4988 5.71844 47.353 5.71844C46.2071 5.71844 45.1788 5.95985 44.2679 6.43262C43.3571 6.90539 42.6422 7.59945 42.1133 8.50474C41.5942 9.41004 41.3298 10.4964 41.3298 11.7638V12.146C41.3298 13.4135 41.5845 14.4998 42.1133 15.4051C42.6324 16.3104 43.3571 17.0045 44.2679 17.4772ZM49.5761 14.6306C48.9885 15.224 48.254 15.5258 47.353 15.5258C46.4519 15.5258 45.7076 15.224 45.1298 14.6306C44.5422 14.0371 44.2484 13.1821 44.2484 12.0756V11.8342C44.2484 10.7277 44.5422 9.87274 45.1298 9.27927C45.7174 8.6858 46.4519 8.38404 47.353 8.38404C48.2638 8.38404 49.0081 8.6858 49.5859 9.27927C50.1638 9.87274 50.4576 10.7277 50.4576 11.8342V12.0756C50.4576 13.1821 50.1638 14.0371 49.5761 14.6306Z" fill="white"/>
<path d="M28.6665 6.05045V17.8595L31.6046 17.8696V11.8645C31.6046 10.7781 31.8495 9.92311 32.3489 9.30952C32.8386 8.69593 33.534 8.39416 34.435 8.39416C35.2283 8.39416 35.8355 8.61546 36.2566 9.05805C36.6778 9.50063 36.8932 10.1746 36.8932 11.0598V17.8696H39.8118V10.8183C39.8118 9.83258 39.6257 8.96752 39.2535 8.23322C38.8814 7.48887 38.3623 6.91551 37.6865 6.49304C37.0206 6.07057 36.2371 5.85933 35.336 5.85933C34.2979 5.85933 33.5242 6.05045 33.0149 6.42263C32.4959 6.79481 32.1531 7.1871 31.967 7.59951H31.5459V6.05045H28.6665Z" fill="white"/>
<path fill-rule="evenodd" clip-rule="evenodd" d="M75.9703 18.1914C74.8244 18.1914 73.7961 17.95 72.8853 17.4772C71.9744 17.0045 71.2497 16.3104 70.7306 15.4051C70.2018 14.4998 69.9373 13.4135 69.9373 12.146V11.7638C69.9373 10.4964 70.2018 9.41004 70.7306 8.50474C71.2595 7.59945 71.9744 6.90539 72.8853 6.43262C73.7961 5.95985 74.8244 5.71844 75.9703 5.71844C77.1161 5.71844 78.1445 5.95985 79.0553 6.43262C79.9661 6.90539 80.6811 7.59945 81.2099 8.50474C81.7388 9.41004 81.9934 10.4964 81.9934 11.7638V12.146C81.9934 13.4135 81.729 14.4998 81.2099 15.4051C80.6811 16.3104 79.9661 17.0045 79.0553 17.4772C78.1445 17.95 77.1161 18.1914 75.9703 18.1914ZM75.9703 15.5258C76.8713 15.5258 77.6058 15.224 78.1935 14.6306C78.7811 14.0371 79.0749 13.1821 79.0749 12.0756V11.8342C79.0749 10.7277 78.7811 9.87274 78.2033 9.27927C77.6254 8.6858 76.8811 8.38404 75.9703 8.38404C75.0693 8.38404 74.3347 8.6858 73.7471 9.27927C73.1595 9.87274 72.8657 10.7277 72.8657 11.8342V12.0756C72.8657 13.1821 73.1595 14.0371 73.7471 14.6306C74.3347 15.224 75.0791 15.5258 75.9703 15.5258Z" fill="white"/>
<path d="M83.5212 6.05045V17.8595L86.4594 17.8696V11.8645C86.4594 10.7781 86.714 9.92311 87.2037 9.30952C87.6934 8.69593 88.3887 8.39416 89.2897 8.39416C90.083 8.39416 90.6903 8.61546 91.1114 9.05805C91.5325 9.50063 91.748 10.1746 91.748 11.0598V17.8696H94.6665V10.8183C94.6665 9.83258 94.4804 8.97757 94.1083 8.23322C93.7361 7.48887 93.217 6.91551 92.5413 6.49304C91.8753 6.07057 91.0918 5.85933 90.1908 5.85933C89.1526 5.85933 88.3789 6.05045 87.8697 6.42263C87.3506 6.79481 87.0078 7.1871 86.8217 7.59951H86.4006V6.05045H83.5212Z" fill="white"/>
<path fill-rule="evenodd" clip-rule="evenodd" d="M23.9998 12.0039C23.9998 18.0674 19.2129 23.0039 13.3332 23.0039C7.45345 23.0039 2.6665 18.0674 2.6665 12.0039C2.6665 5.93047 7.44378 1.00391 13.3332 1.00391C14.9578 1.00391 16.5051 1.38287 17.8784 2.05105L16.1086 4.40463C15.2479 4.06556 14.3099 3.88605 13.3332 3.88605C9.18448 3.88605 5.77077 7.20699 5.48065 11.4155C5.47098 11.5053 5.47098 11.585 5.47098 11.6748C5.47098 11.7845 5.46131 11.8942 5.46131 12.0139C5.46131 16.4917 8.99107 20.1317 13.3332 20.1317C17.6753 20.1317 21.205 16.4917 21.205 12.0139C21.205 11.4155 21.1373 10.8271 21.0213 10.2686L23.0811 7.53609C23.671 8.89239 23.9998 10.4083 23.9998 12.0039Z" fill="#FBDE2A"/>
<path fill-rule="evenodd" clip-rule="evenodd" d="M21.9998 5.16737L13.8441 16.1289L8.6665 11.2977L10.5448 9.1054L13.4743 11.8356L20.0047 3.06641C20.7541 3.67538 21.4256 4.3757 21.9998 5.16737Z" fill="white"/>
<path d="M108.5 1.00391C108.5 0.727764 108.276 0.503906 108 0.503906C107.724 0.503906 107.5 0.727764 107.5 1.00391L108.5 1.00391ZM107.5 1.00391L107.5 23.0039L108.5 23.0039L108.5 1.00391L107.5 1.00391Z" fill="#675C70"/>
<path d="M124.241 9.27663C124.173 8.70088 123.897 8.25391 123.412 7.93572C122.927 7.61754 122.332 7.45845 121.628 7.45845C121.113 7.45845 120.662 7.54178 120.276 7.70845C119.893 7.87512 119.594 8.10428 119.378 8.39595C119.166 8.68762 119.06 9.01906 119.06 9.39027C119.06 9.70088 119.134 9.96792 119.281 10.1914C119.433 10.4111 119.626 10.5948 119.861 10.7425C120.096 10.8865 120.342 11.0058 120.599 11.1005C120.857 11.1914 121.094 11.2653 121.31 11.3221L122.491 11.6403C122.795 11.7198 123.132 11.8297 123.503 11.9698C123.878 12.11 124.236 12.3013 124.577 12.5437C124.921 12.7823 125.205 13.0891 125.429 13.4641C125.652 13.8391 125.764 14.2994 125.764 14.8448C125.764 15.4736 125.599 16.0418 125.27 16.5494C124.944 17.0569 124.467 17.4603 123.838 17.7596C123.213 18.0588 122.454 18.2085 121.56 18.2085C120.726 18.2085 120.005 18.074 119.395 17.805C118.789 17.5361 118.312 17.1611 117.963 16.68C117.618 16.199 117.423 15.6403 117.378 15.0039H118.832C118.87 15.4433 119.018 15.8069 119.276 16.0948C119.537 16.3789 119.866 16.591 120.264 16.7312C120.666 16.8675 121.098 16.9357 121.56 16.9357C122.098 16.9357 122.58 16.8486 123.009 16.6744C123.437 16.4963 123.776 16.2501 124.026 15.9357C124.276 15.6175 124.401 15.2463 124.401 14.8221C124.401 14.4357 124.293 14.1213 124.077 13.8789C123.861 13.6365 123.577 13.4395 123.224 13.288C122.872 13.1365 122.491 13.0039 122.082 12.8903L120.651 12.4812C119.741 12.2198 119.022 11.8467 118.491 11.3619C117.961 10.877 117.696 10.2425 117.696 9.45845C117.696 8.80694 117.872 8.23875 118.224 7.75391C118.58 7.26527 119.058 6.88648 119.656 6.61754C120.259 6.34481 120.931 6.20845 121.673 6.20845C122.423 6.20845 123.09 6.34292 123.673 6.61186C124.257 6.87701 124.719 7.24065 125.06 7.70277C125.404 8.16489 125.586 8.68951 125.605 9.27663H124.241ZM130.467 18.2085C129.914 18.2085 129.412 18.1043 128.962 17.896C128.511 17.6838 128.153 17.3789 127.888 16.9812C127.623 16.5797 127.49 16.0948 127.49 15.5266C127.49 15.0266 127.589 14.6213 127.786 14.3107C127.982 13.9963 128.246 13.7501 128.575 13.5721C128.905 13.3941 129.268 13.2615 129.666 13.1744C130.068 13.0835 130.471 13.0115 130.876 12.9585C131.407 12.8903 131.837 12.8391 132.166 12.805C132.5 12.7672 132.742 12.7047 132.893 12.6175C133.049 12.5304 133.126 12.3789 133.126 12.163V12.1175C133.126 11.5569 132.973 11.1213 132.666 10.8107C132.363 10.5001 131.903 10.3448 131.286 10.3448C130.645 10.3448 130.143 10.485 129.78 10.7653C129.416 11.0456 129.161 11.3448 129.013 11.663L127.74 11.2085C127.967 10.6781 128.27 10.2653 128.649 9.96982C129.032 9.67057 129.448 9.46224 129.899 9.34482C130.354 9.2236 130.801 9.163 131.24 9.163C131.52 9.163 131.842 9.19709 132.206 9.26527C132.573 9.32966 132.928 9.46413 133.268 9.66868C133.613 9.87322 133.899 10.1819 134.126 10.5948C134.354 11.0077 134.467 11.5607 134.467 12.2539V18.0039H133.126V16.8221H133.058C132.967 17.0115 132.816 17.2141 132.604 17.43C132.392 17.646 132.109 17.8297 131.757 17.9812C131.405 18.1327 130.975 18.2085 130.467 18.2085ZM130.672 17.0039C131.202 17.0039 131.649 16.8997 132.013 16.6914C132.38 16.4831 132.657 16.2141 132.842 15.8846C133.032 15.555 133.126 15.2085 133.126 14.8448V13.6175C133.07 13.6857 132.945 13.7482 132.751 13.805C132.562 13.8581 132.342 13.9054 132.092 13.9471C131.846 13.985 131.606 14.0191 131.371 14.0494C131.14 14.0759 130.952 14.0986 130.808 14.1175C130.46 14.163 130.134 14.2369 129.831 14.3391C129.532 14.4376 129.289 14.5872 129.104 14.788C128.922 14.985 128.831 15.2539 128.831 15.5948C128.831 16.0607 129.003 16.413 129.348 16.6516C129.696 16.8865 130.138 17.0039 130.672 17.0039ZM140.801 9.27663V10.413H136.097V9.27663H140.801ZM137.506 18.0039V8.07209C137.506 7.57209 137.623 7.15542 137.858 6.82209C138.093 6.48875 138.398 6.23875 138.773 6.07209C139.148 5.90542 139.544 5.82209 139.96 5.82209C140.29 5.82209 140.559 5.8486 140.767 5.90163C140.975 5.95466 141.131 6.00391 141.233 6.04936L140.847 7.20845C140.778 7.18572 140.684 7.15731 140.562 7.12322C140.445 7.08913 140.29 7.07209 140.097 7.07209C139.653 7.07209 139.333 7.18383 139.136 7.40732C138.943 7.6308 138.847 7.95845 138.847 8.39027V18.0039H137.506ZM145.98 18.1857C145.139 18.1857 144.414 18.0001 143.804 17.6289C143.198 17.2539 142.73 16.7312 142.401 16.0607C142.075 15.3865 141.912 14.6024 141.912 13.7085C141.912 12.8145 142.075 12.0266 142.401 11.3448C142.73 10.6592 143.188 10.1251 143.776 9.74254C144.366 9.35618 145.056 9.163 145.844 9.163C146.298 9.163 146.747 9.23875 147.19 9.39027C147.634 9.54178 148.037 9.788 148.401 10.1289C148.764 10.466 149.054 10.913 149.27 11.4698C149.486 12.0266 149.594 12.7122 149.594 13.5266V14.0948H142.866V12.9357H148.23C148.23 12.4433 148.132 12.0039 147.935 11.6175C147.741 11.2312 147.465 10.9263 147.105 10.7028C146.749 10.4793 146.329 10.3675 145.844 10.3675C145.31 10.3675 144.848 10.5001 144.457 10.7653C144.071 11.0266 143.774 11.3675 143.565 11.788C143.357 12.2085 143.253 12.6592 143.253 13.1403V13.913C143.253 14.5721 143.366 15.1308 143.594 15.5891C143.825 16.0437 144.145 16.3903 144.554 16.6289C144.963 16.8638 145.438 16.9812 145.98 16.9812C146.332 16.9812 146.651 16.9319 146.935 16.8335C147.223 16.7312 147.471 16.5797 147.679 16.3789C147.887 16.1744 148.048 15.9206 148.162 15.6175L149.457 15.9812C149.321 16.4206 149.092 16.8069 148.77 17.1403C148.448 17.4698 148.05 17.7274 147.577 17.913C147.103 18.0948 146.571 18.1857 145.98 18.1857ZM158.429 18.0039L155.247 6.36754H156.679L159.111 15.8448H159.224L161.702 6.36754H163.293L165.77 15.8448H165.884L168.315 6.36754H169.747L166.565 18.0039H165.111L162.543 8.73118H162.452L159.884 18.0039H158.429ZM174.168 18.1857C173.327 18.1857 172.601 18.0001 171.991 17.6289C171.385 17.2539 170.918 16.7312 170.588 16.0607C170.262 15.3865 170.099 14.6024 170.099 13.7085C170.099 12.8145 170.262 12.0266 170.588 11.3448C170.918 10.6592 171.376 10.1251 171.963 9.74254C172.554 9.35618 173.243 9.163 174.031 9.163C174.486 9.163 174.935 9.23875 175.378 9.39027C175.821 9.54178 176.224 9.788 176.588 10.1289C176.952 10.466 177.241 10.913 177.457 11.4698C177.673 12.0266 177.781 12.7122 177.781 13.5266V14.0948H171.054V12.9357H176.418C176.418 12.4433 176.319 12.0039 176.122 11.6175C175.929 11.2312 175.652 10.9263 175.293 10.7028C174.937 10.4793 174.516 10.3675 174.031 10.3675C173.497 10.3675 173.035 10.5001 172.645 10.7653C172.259 11.0266 171.961 11.3675 171.753 11.788C171.545 12.2085 171.44 12.6592 171.44 13.1403V13.913C171.44 14.5721 171.554 15.1308 171.781 15.5891C172.012 16.0437 172.332 16.3903 172.741 16.6289C173.151 16.8638 173.626 16.9812 174.168 16.9812C174.52 16.9812 174.838 16.9319 175.122 16.8335C175.41 16.7312 175.658 16.5797 175.866 16.3789C176.075 16.1744 176.236 15.9206 176.349 15.6175L177.645 15.9812C177.509 16.4206 177.279 16.8069 176.957 17.1403C176.635 17.4698 176.238 17.7274 175.764 17.913C175.291 18.0948 174.759 18.1857 174.168 18.1857ZM180.003 18.0039V6.36754H181.344V10.663H181.457C181.556 10.5115 181.692 10.3183 181.866 10.0835C182.045 9.84482 182.298 9.63269 182.628 9.44709C182.961 9.25769 183.412 9.163 183.98 9.163C184.715 9.163 185.363 9.34671 185.923 9.71413C186.484 10.0816 186.921 10.6024 187.236 11.2766C187.55 11.9509 187.707 12.7463 187.707 13.663C187.707 14.5872 187.55 15.3884 187.236 16.0664C186.921 16.7406 186.486 17.2634 185.929 17.6346C185.372 18.002 184.73 18.1857 184.003 18.1857C183.442 18.1857 182.993 18.0929 182.656 17.9073C182.319 17.7179 182.06 17.5039 181.878 17.2653C181.696 17.0228 181.556 16.8221 181.457 16.663H181.298V18.0039H180.003ZM181.321 13.6403C181.321 14.2994 181.418 14.8808 181.611 15.3846C181.804 15.8846 182.086 16.2766 182.457 16.5607C182.829 16.841 183.283 16.9812 183.821 16.9812C184.382 16.9812 184.849 16.8335 185.224 16.538C185.603 16.2388 185.887 15.8372 186.077 15.3335C186.27 14.8259 186.366 14.2615 186.366 13.6403C186.366 13.0266 186.272 12.4736 186.082 11.9812C185.897 11.485 185.615 11.0929 185.236 10.805C184.861 10.5134 184.389 10.3675 183.821 10.3675C183.276 10.3675 182.817 10.5058 182.446 10.7823C182.075 11.055 181.795 11.4376 181.605 11.93C181.416 12.4187 181.321 12.9888 181.321 13.6403Z" fill="white"/>
</svg>
