<svg width="159" height="42" viewBox="0 0 159 42" fill="none" xmlns="http://www.w3.org/2000/svg">
<path d="M22.3266 21.3867L11.6641 27.8489V40.7732L22.3266 34.3111V21.3867Z" fill="#B1A3BF"/>
<path d="M11.6626 14.9244L1 21.3865V8.46218L11.6626 2V14.9244Z" fill="#B1A3BF"/>
<path d="M22.3252 21.3868L12.1472 27.6875L1 21.3868L11.6626 14.6016L22.3252 21.3868Z" fill="#B1A3BF"/>
<path d="M1 21.3868L11.6626 14.6016" stroke="#B1A3BF" stroke-width="0.57807" stroke-miterlimit="10"/>
<path d="M11.6641 28.172L22.3266 21.3867" stroke="#B1A3BF" stroke-width="0.57807" stroke-miterlimit="10"/>
<path d="M1 34.4725L11.6626 28.1719V40.7731L1 34.4725Z" fill="#B1A3BF"/>
<path d="M20.9331 20.5414L12.3586 15.3461C11.9262 15.0833 11.6626 14.6238 11.6626 14.1283V2L1 8.46193V19.7947C1 20.7855 1.52572 21.706 2.39206 22.2301L10.9666 27.427C11.399 27.6897 11.6626 28.1493 11.6626 28.6447V40.773L22.3252 34.3111V22.9783C22.3252 21.9875 21.7994 21.067 20.9331 20.5414Z" stroke="#B1A3BF" stroke-width="1.80647" stroke-miterlimit="10" stroke-linecap="round" stroke-linejoin="round"/>
<path d="M11.6626 40.7731L1 34.2925L10.9961 28.1719" stroke="#B1A3BF" stroke-width="1.80647" stroke-miterlimit="10" stroke-linecap="round" stroke-linejoin="round"/>
<path d="M43.1377 21.1639C43.2939 21.0171 43.4314 20.8553 43.5532 20.6773C43.7037 20.4547 43.8068 20.2084 43.8713 19.9443C43.9415 19.661 43.9759 19.3657 43.9759 19.069C43.9759 18.5882 43.8999 18.1461 43.7509 17.7543C43.599 17.3597 43.3755 17.0066 43.0876 16.7083C42.7208 16.3285 42.2809 16.0406 41.7823 15.8508C41.2938 15.6653 40.7737 15.5703 40.2364 15.5703H34.3406C34.1315 15.5703 33.9609 15.7469 33.9609 15.9635V27.7783C33.9609 27.995 34.1315 28.1715 34.3406 28.1715H40.4642C41.0545 28.1715 41.609 28.0662 42.1148 27.8585C42.6176 27.6523 43.0704 27.357 43.4572 26.9846C43.8226 26.6344 44.112 26.2131 44.3168 25.7323C44.5203 25.2516 44.6235 24.7219 44.6235 24.1596C44.6235 23.3331 44.4085 22.6016 43.9788 21.977C43.7409 21.6521 43.4587 21.3791 43.1377 21.1639ZM40.4886 25.578H36.7333V22.7441H40.5846C40.7851 22.7441 40.9743 22.7871 41.1619 22.8776C41.3539 22.9697 41.513 23.0869 41.6362 23.2248C41.8196 23.4444 41.9084 23.7442 41.9084 24.1418C41.9084 24.3451 41.8769 24.5379 41.8167 24.713C41.758 24.8792 41.6806 25.0112 41.5889 25.1076C41.4428 25.2486 41.2709 25.3644 41.076 25.4519C40.884 25.5365 40.6934 25.578 40.4886 25.578ZM41.0101 19.8627C40.9384 19.9473 40.851 20.0155 40.745 20.0734C40.6519 20.1238 40.5488 20.1476 40.4299 20.1476H36.7333V18.1639H40.1275C40.4929 18.1639 40.7723 18.2603 40.9829 18.4606C41.1577 18.6238 41.2422 18.8538 41.2422 19.1654C41.2408 19.4443 41.1634 19.6743 41.0101 19.8627Z" fill="#B1A3BF"/>
<path d="M50.0072 15.5703H47.9241C47.7062 15.5703 47.5312 15.7469 47.5312 15.9635V27.7783C47.5312 27.995 47.7076 28.1715 47.9241 28.1715H56.8317C57.0496 28.1715 57.2245 27.995 57.2245 27.7783V25.9119C57.2245 25.6953 57.0481 25.5187 56.8317 25.5187H50.4V15.965C50.4 15.7469 50.2236 15.5703 50.0072 15.5703Z" fill="#B1A3BF"/>
<path d="M69.0128 17.3572C68.4555 16.7907 67.7869 16.3461 67.0238 16.035C66.2648 15.7267 65.4142 15.5703 64.4973 15.5703C63.5508 15.5703 62.6719 15.7439 61.8876 16.0866C61.1005 16.4294 60.4192 16.9112 59.8634 17.5163C59.333 18.0814 58.9168 18.7439 58.6262 19.4839C58.3356 20.2239 58.1875 21.0269 58.1875 21.8717C58.1875 22.6791 58.3384 23.4635 58.6361 24.2049C58.9337 24.9434 59.3386 25.5959 59.8422 26.1466C60.398 26.7518 61.0808 27.2451 61.8693 27.6137C62.6635 27.9836 63.5479 28.1715 64.4973 28.1715C65.441 28.1715 66.3086 28.0052 67.0773 27.6753C67.8433 27.3454 68.5204 26.8779 69.0903 26.2871C69.6348 25.7207 70.058 25.0538 70.3501 24.3052C70.6406 23.5596 70.7887 22.7407 70.7887 21.8717C70.7887 21.0012 70.6349 20.1723 70.3303 19.4065C70.0256 18.6392 69.5841 17.9509 69.0128 17.3572ZM68.0591 21.8702C68.0591 22.4051 67.9731 22.8998 67.8024 23.3373C67.6317 23.7761 67.3975 24.1604 67.1056 24.4802C66.7783 24.8358 66.3861 25.1155 65.9404 25.3091C65.0375 25.7034 63.9189 25.6977 63.0387 25.3005C62.5944 25.1012 62.2093 24.8201 61.8904 24.4616C61.597 24.1404 61.3586 23.7546 61.1809 23.3143C61.006 22.8784 60.9171 22.3922 60.9171 21.8688C60.9171 21.3339 61.006 20.8405 61.1809 20.4046C61.3572 19.9643 61.597 19.5771 61.889 19.2573C62.2163 18.9017 62.607 18.6234 63.0528 18.4284C63.4999 18.2334 63.9852 18.1345 64.4959 18.1345C64.9939 18.1345 65.4734 18.2334 65.9207 18.4284C66.3678 18.6249 66.7613 18.8988 67.0887 19.243C67.3806 19.5513 67.6176 19.9314 67.7925 20.3745C67.9703 20.8205 68.0591 21.3238 68.0591 21.8702Z" fill="#B1A3BF"/>
<path d="M76.617 19.1746C76.9548 18.8404 77.3494 18.5822 77.792 18.4044C78.7762 18.0071 80.0298 18.0674 80.9513 18.4575C81.3479 18.6253 82.1874 19.2563 82.5561 19.5404C82.6597 19.6192 82.8038 19.6049 82.8906 19.5088L84.2948 17.9541C84.3895 17.8494 84.3776 17.6902 84.2653 17.6026C83.785 17.2297 82.5705 16.3104 81.9604 16.0566C81.1815 15.7338 80.2672 15.5703 79.2393 15.5703C78.2929 15.5703 77.4105 15.731 76.62 16.0451C75.8278 16.362 75.1348 16.8096 74.5568 17.3789C73.9831 17.9584 73.5302 18.6324 73.2114 19.3826C72.8896 20.137 72.7266 20.9674 72.7266 21.8523C72.7266 22.7501 72.8896 23.5906 73.2099 24.3493C73.5302 25.1109 73.9991 25.7907 74.6004 26.3687C75.1872 26.9338 75.8788 27.3799 76.6564 27.6954C77.4338 28.0109 78.3031 28.1715 79.2379 28.1715C80.2616 28.1715 81.1759 28.0138 81.9548 27.7012C82.5721 27.453 83.789 26.4964 84.2637 26.1135C84.3728 26.0259 84.3832 25.8682 84.2884 25.7634L82.8899 24.2331C82.8038 24.1385 82.6613 24.1241 82.5577 24.2016C82.189 24.4799 81.3463 25.1023 80.9473 25.2744C80.0266 25.6746 78.7908 25.7448 77.7687 25.3117C77.3057 25.1152 76.9009 24.8398 76.5573 24.4899C76.2573 24.1945 76.0113 23.8201 75.8249 23.3755C75.6386 22.9323 75.5439 22.4231 75.5439 21.8609C75.5439 21.3259 75.6415 20.8197 75.8351 20.3564C76.0288 19.8931 76.2923 19.4959 76.617 19.1746Z" fill="#B1A3BF"/>
<path d="M97.456 15.5703H94.6812C94.493 15.5703 94.317 15.6608 94.2077 15.8107L91.1024 20.1298H89.2057V15.9635C89.2057 15.7469 89.0264 15.5703 88.8069 15.5703H86.6956C86.4761 15.5703 86.2969 15.7469 86.2969 15.9635V27.7783C86.2969 27.995 86.4761 28.1715 86.6956 28.1715H88.8069C89.0264 28.1715 89.2057 27.995 89.2057 27.7783V22.7827H91.1336L94.5398 27.9119C94.6467 28.0736 94.83 28.1701 95.0249 28.1701H97.7364C97.8885 28.1701 97.9805 28.0039 97.8975 27.8778L93.6075 21.385L97.6122 15.867C97.7018 15.7454 97.6122 15.5703 97.456 15.5703Z" fill="#B1A3BF"/>
<path d="M102.789 19.1746C103.127 18.8404 103.523 18.5808 103.965 18.4044C104.948 18.0086 106.202 18.0674 107.124 18.4575C107.52 18.6253 108.36 19.2563 108.728 19.5404C108.832 19.6192 108.976 19.6049 109.063 19.5088L110.467 17.9541C110.561 17.8494 110.549 17.6902 110.437 17.6026C109.957 17.2297 108.743 16.309 108.133 16.0566C107.353 15.7338 106.439 15.5703 105.412 15.5703C104.465 15.5703 103.583 15.731 102.792 16.0451C102 16.362 101.307 16.8096 100.729 17.3789C100.155 17.957 99.7028 18.631 99.3835 19.3826C99.0617 20.137 98.8984 20.9689 98.8984 21.8523C98.8984 22.7487 99.0617 23.5892 99.3819 24.3493C99.7036 25.1109 100.171 25.7907 100.772 26.3687C101.359 26.9338 102.05 27.3799 102.827 27.6954C103.606 28.0109 104.475 28.1715 105.41 28.1715C106.434 28.1715 107.348 28.0138 108.127 27.7012C108.744 27.453 109.962 26.4964 110.437 26.1135C110.547 26.0259 110.557 25.8682 110.463 25.7634L109.063 24.2331C108.977 24.1385 108.833 24.1241 108.731 24.2016C108.362 24.4799 107.518 25.1023 107.121 25.2744C106.199 25.6746 104.963 25.7434 103.942 25.3117C103.481 25.1152 103.075 24.8398 102.731 24.4899C102.432 24.1959 102.185 23.8201 101.999 23.3755C101.813 22.9309 101.718 22.4217 101.718 21.8609C101.718 21.3245 101.815 20.8182 102.009 20.3564C102.202 19.8931 102.465 19.4959 102.789 19.1746Z" fill="#B1A3BF"/>
<path d="M121.376 20.1298H116.178V15.9635C116.178 15.7469 116.011 15.5703 115.804 15.5703H113.819C113.613 15.5703 113.445 15.7469 113.445 15.9635V27.7783C113.445 27.995 113.613 28.1715 113.819 28.1715H115.804C116.011 28.1715 116.178 27.995 116.178 27.7783V22.7827H121.376V27.7783C121.376 27.995 121.544 28.1715 121.75 28.1715H123.733C123.941 28.1715 124.108 27.995 124.108 27.7783V15.9635C124.108 15.7469 123.939 15.5703 123.733 15.5703H121.75C121.544 15.5703 121.376 15.7469 121.376 15.9635V20.1298Z" fill="#B1A3BF"/>
<path d="M131.309 15.9101L126.055 27.9059C126.001 28.0306 126.091 28.1715 126.227 28.1715H128.596C128.819 28.1715 129.021 28.0395 129.112 27.8317L129.918 25.9994H135.673L136.499 27.8362C136.591 28.041 136.792 28.1715 137.013 28.1715H139.422C139.557 28.1715 139.648 28.0306 139.594 27.9059L134.34 15.9101C134.248 15.7039 134.046 15.5703 133.822 15.5703H131.826C131.603 15.5689 131.4 15.7024 131.309 15.9101ZM134.579 23.345H131.024L132.777 18.8271L134.579 23.345Z" fill="#B1A3BF"/>
<path d="M141.958 28.1715H144.058C144.283 28.1715 144.463 27.9949 144.463 27.7783V15.9635C144.463 15.7469 144.281 15.5703 144.058 15.5703H141.958C141.736 15.5703 141.555 15.7469 141.555 15.9635V27.7783C141.555 27.9949 141.736 28.1715 141.958 28.1715Z" fill="#B1A3BF"/>
<path d="M156.785 24.298C156.994 24.1808 157.188 24.0473 157.364 23.9019C157.638 23.6734 157.888 23.4138 158.107 23.129C158.699 22.3397 158.999 21.3858 158.999 20.2909C158.999 19.61 158.876 18.9795 158.635 18.4187C158.395 17.8653 158.066 17.3684 157.652 16.9396C157.214 16.499 156.704 16.1563 156.138 15.9219C155.573 15.6891 154.961 15.5703 154.322 15.5703H148.714C148.504 15.5703 148.336 15.7469 148.336 15.9635V27.7769C148.336 27.9935 148.505 28.1701 148.714 28.1701H150.719C150.927 28.1701 151.096 27.9935 151.096 27.7769V24.9537H154.028L155.715 27.8926C155.815 28.0662 155.994 28.1715 156.188 28.1715H158.816C158.919 28.1715 158.981 28.0543 158.929 27.9623L156.785 24.298ZM151.098 18.263H154.27C154.573 18.263 154.861 18.3252 155.124 18.4469C155.384 18.5685 155.587 18.7273 155.762 18.9558C156.082 19.3089 156.236 19.748 156.236 20.3014C156.236 20.5595 156.192 20.8161 156.106 21.0624C156.021 21.3072 155.895 21.5179 155.709 21.7241C155.568 21.9021 155.384 22.0386 155.151 22.1424C154.911 22.2477 154.647 22.2996 154.366 22.2996H151.098V18.263Z" fill="#B1A3BF"/>
</svg>
