<svg width="196" height="42" viewBox="0 0 196 42" fill="none" xmlns="http://www.w3.org/2000/svg">
<g clip-path="url(#clip0_3323_56219)">
<path d="M48.8643 21.8902C48.8643 25.5983 51.5751 28.0723 54.8614 28.0723C56.6447 28.0762 58.3939 27.573 59.9132 26.619V30.2204C59.2303 30.653 57.1786 31.4391 54.8883 31.4391C49.5442 31.43 45.3125 27.2893 45.3125 21.8902C45.3125 16.4911 49.5442 12.3596 54.8883 12.3596C57.1786 12.3596 59.2303 13.1396 59.9132 13.5783V17.1584C58.3927 16.208 56.6439 15.707 54.8614 15.7111C51.5751 15.7111 48.8643 18.1822 48.8643 21.8902ZM75.6382 22.1096V31.1619H72.3578V23.179C72.3578 21.5947 71.6719 20.4125 69.9095 20.4125C68.2007 20.4125 67.2016 21.5124 67.2016 23.502V31.1619H63.9213V11.543H67.2016V19.9554C67.4372 19.3461 68.3587 17.454 71.1202 17.454C73.9563 17.454 75.6382 19.1754 75.6382 22.1096ZM93.4746 28.3404V31.1619H89.2399C89.171 31.1661 89.102 31.1557 89.0373 31.1312C88.9726 31.1068 88.9135 31.0689 88.8639 31.0199C88.8142 30.9709 88.7751 30.9119 88.749 30.8467C88.7228 30.7814 88.7103 30.7113 88.712 30.6408V28.2338C88.2647 29.8182 87.0569 31.43 84.537 31.43C81.1165 31.43 78.6442 28.8249 78.6442 24.4435C78.6442 20.0072 81.3521 17.454 84.7189 17.454C87.8234 17.454 88.4556 20.0621 88.4556 20.0621V17.7251H91.736V28.3404H93.4746ZM88.554 24.4709C88.554 21.9451 87.3611 20.3576 85.3989 20.3576C83.5052 20.3576 82.0588 21.7836 82.0588 24.4435C82.0588 27.1034 83.2517 28.5294 85.2408 28.5294C87.2657 28.5294 88.554 27.1857 88.554 24.4709ZM101.005 18.2614V31.1619H97.7242V20.5465H95.3384V17.7251H100.492C100.561 17.7229 100.629 17.7354 100.693 17.7617C100.757 17.788 100.815 17.8277 100.863 17.8781C100.912 17.9285 100.949 17.9886 100.973 18.0546C100.998 18.1206 101.008 18.191 101.005 18.2614ZM100.9 14.9281H97.3484V11.543H100.9V14.9281ZM104.837 17.7251H108.072V20.1169C108.18 19.7665 108.967 17.454 112.045 17.454C114.887 17.454 116.571 19.1754 116.571 22.1035V31.1619H113.291V23.179C113.291 21.5947 112.608 20.4125 110.846 20.4125C109.134 20.4125 108.135 21.5124 108.135 23.502V31.1619H104.855L104.837 17.7251ZM134.405 28.3404V31.1619H130.17C130.101 31.1661 130.032 31.1557 129.968 31.1312C129.903 31.1068 129.844 31.0689 129.794 31.0199C129.745 30.9709 129.705 30.9119 129.679 30.8467C129.653 30.7814 129.641 30.7113 129.642 30.6408V28.2338C129.195 29.8182 127.987 31.43 125.467 31.43C122.047 31.43 119.575 28.8249 119.575 24.4435C119.575 20.0072 122.282 17.454 125.652 17.454C128.757 17.454 129.386 20.0621 129.386 20.0621V17.7251H132.666V28.3404H134.405ZM129.484 24.4709C129.484 21.9451 128.291 20.3576 126.329 20.3576C124.435 20.3576 122.989 21.7836 122.989 24.4435C122.989 27.1034 124.197 28.5294 126.186 28.5294C128.196 28.5294 129.484 27.1857 129.484 24.4709ZM141.115 12.3596V31.1619H137.816V14.3644H135.765V11.543H140.316C140.421 11.5418 140.525 11.5621 140.623 11.6027C140.72 11.6433 140.809 11.7034 140.883 11.7795C140.958 11.8555 141.017 11.946 141.056 12.0457C141.096 12.1453 141.116 12.252 141.115 12.3596ZM147.022 37.344H143.742V34.5226H146.167C147.034 34.5226 147.431 34.2544 147.744 33.447L148.719 30.9211L143.656 17.7251H147.312L150.389 27.2101L153.574 17.7251H157.23L150.759 34.7358C150.076 36.5365 148.943 37.344 147.022 37.344ZM159.053 30.3026V27.0516C159.5 27.3563 161.313 28.5751 163.341 28.5751C164.892 28.5751 165.575 28.118 165.575 27.2314C165.575 24.5715 158.868 26.5336 158.868 21.4819C158.868 19.1968 160.761 17.4479 164.236 17.4479C166.153 17.4479 167.516 17.9597 168.05 18.2827V21.5002C167.391 21.0676 166.076 20.2083 164.286 20.2083C162.736 20.2083 162.157 20.6928 162.157 21.4454C162.157 23.6208 168.837 22.1157 168.837 27.0638C168.837 29.7512 166.654 31.4422 163.469 31.4422C161.376 31.43 159.658 30.7048 159.053 30.3026ZM176.704 18.2614V31.1619H173.424V20.5465H171.038V17.7251H176.194C176.263 17.7229 176.331 17.7353 176.395 17.7617C176.459 17.788 176.517 17.8277 176.565 17.8782C176.613 17.9287 176.65 17.9888 176.674 18.0548C176.698 18.1208 176.708 18.1911 176.704 18.2614ZM176.6 14.9281H173.048V11.543H176.6V14.9281ZM180.22 30.3026V27.0516C180.664 27.3563 182.48 28.5751 184.505 28.5751C186.059 28.5751 186.742 28.118 186.742 27.2314C186.742 24.5715 180.035 26.5336 180.035 21.4819C180.035 19.1968 181.929 17.4479 185.403 17.4479C187.324 17.4479 188.683 17.9597 189.217 18.2827V21.5002C188.117 20.698 186.808 20.2483 185.457 20.2083C183.903 20.2083 183.324 20.6928 183.324 21.4454C183.324 23.6208 190.007 22.1157 190.007 27.0638C190.007 29.7512 187.825 31.4422 184.64 31.4422C182.549 31.43 180.822 30.7048 180.22 30.3026Z" fill="#B1A3BF"/>
<path d="M20.9134 6.875C21.2474 6.875 21.6262 6.91766 21.6262 6.91766C20.5056 8.29084 19.8303 9.98586 19.6937 11.7683C17.5823 12.1292 15.6384 13.1683 14.1444 14.7347C12.6503 16.3012 11.6839 18.3135 11.3854 20.4793C9.45593 20.6926 7.27298 21.5945 6.01749 22.8833C5.71927 14.0413 12.3516 6.875 20.9134 6.875ZM23.0606 33.4377C22.6657 33.4973 22.2669 33.5268 21.8677 33.526C21.1787 33.5176 20.4911 33.4596 19.81 33.3523C19.2779 34.6613 18.5758 35.8911 17.7225 37.0086C15.046 36.4055 12.584 35.0605 10.607 33.1211C8.62989 31.1818 7.21423 28.7232 6.51551 26.0155C7.86047 24.3854 10.9679 23.4409 12.8974 23.4409C17.0128 23.4409 19.1957 25.6712 19.9532 29.1477C17.475 28.4621 16.0048 27.0453 15.0386 24.943C14.4739 24.7335 13.8768 24.6303 13.2761 24.6383C12.7341 24.636 12.1953 24.7235 11.6806 24.8973C12.7721 29.1477 16.804 32.3225 21.7156 32.3225C26.2515 32.3225 28.181 29.9642 28.181 29.9642V26.3567C28.181 26.3567 25.9563 28.718 23.1858 29.1903C22.8742 26.9865 21.8706 24.9457 20.3261 23.3747C18.7815 21.8038 16.7795 20.7877 14.6211 20.4793C15.3338 16.8748 18.0207 14.8578 21.6739 14.8578C25.327 14.8578 28.2675 17.5604 28.2675 17.5604V13.9986C28.2675 13.9986 26.3768 12.1948 23.0188 11.8109C23.1023 10.2266 24.1103 8.24914 25.2018 7.51789C29.7764 8.97734 34.1871 12.9261 35.4456 18.6755C35.4456 18.6755 33.4296 20.7352 29.6512 20.7352C26.5438 20.7352 24.5815 19.1478 23.4781 16.3599C22.8993 16.1493 22.2883 16.0461 21.6739 16.0552C21.1005 16.0488 20.5311 16.1522 19.9949 16.3599C21.2117 20.8236 25.0646 23.8248 29.3589 23.8248C33.5578 23.8248 35.8243 21.8534 35.8243 21.8534C35.8243 30.7777 29.1472 37.1731 21.2117 37.3438C22.1361 36.4297 22.8489 34.4248 23.0606 33.4377Z" fill="#B1A3BF"/>
</g>
<defs>
<clipPath id="clip0_3323_56219">
<rect width="184" height="30.4688" fill="white" transform="translate(6 6.875)"/>
</clipPath>
</defs>
</svg>
