<svg width="124" height="29" viewBox="0 0 124 29" fill="none" xmlns="http://www.w3.org/2000/svg">
<path d="M89.009 12.4704V15.1197H87.2327V16.8571H89.009V22.7605C89.009 24.7763 89.9844 25.5826 92.4384 25.5826C92.8696 25.5826 93.2803 25.5346 93.6397 25.477V23.7588C93.3317 23.7876 93.1366 23.8068 92.7977 23.8068C91.6991 23.8068 91.2165 23.3268 91.2165 22.2326V16.8571H93.6397V15.1197H91.2165V12.4704H89.009Z" fill="white"/>
<path d="M99.8911 25.7266C103.156 25.7266 105.158 23.682 105.158 20.2936C105.158 16.9243 103.146 14.8702 99.8911 14.8702C96.6259 14.8702 94.6135 16.9243 94.6135 20.2936C94.6135 23.682 96.6157 25.7266 99.8911 25.7266ZM99.8911 23.8932C97.971 23.8932 96.8929 22.5781 96.8929 20.2936C96.8929 18.0282 97.971 16.7036 99.8911 16.7036C101.801 16.7036 102.889 18.0282 102.889 20.2936C102.889 22.5685 101.801 23.8932 99.8911 23.8932Z" fill="white"/>
<path d="M106.871 25.525H109.079V19.3529C109.079 17.8842 110.26 16.8955 111.933 16.8955C112.324 16.8955 112.981 16.9627 113.165 17.0203V14.9853C112.929 14.9277 112.508 14.8989 112.18 14.8989C110.722 14.8989 109.479 15.6477 109.161 16.6748H108.997V15.0717H106.871V25.525Z" fill="white"/>
<path d="M118.647 16.6268C120.279 16.6268 121.347 17.6922 121.399 19.3337H115.751C115.875 17.7018 117.014 16.6268 118.647 16.6268ZM121.388 22.7029C120.978 23.5188 120.064 23.97 118.729 23.97C116.963 23.97 115.823 22.8085 115.751 20.9751V20.8599H123.647V20.14C123.647 16.8571 121.768 14.8702 118.657 14.8702C115.505 14.8702 113.503 16.9915 113.503 20.332C113.503 23.6724 115.464 25.7266 118.667 25.7266C121.224 25.7266 123.011 24.5747 123.514 22.7029H121.388Z" fill="white"/>
<path d="M74.5322 21.6648C74.7025 24.2316 76.9905 25.8732 80.396 25.8732C84.0356 25.8732 86.313 24.152 86.313 21.4061C86.313 19.2472 85.0147 18.0533 81.8646 17.3668L80.1725 16.9788C78.1718 16.541 77.363 15.954 77.363 14.9293C77.363 13.6359 78.6188 12.7902 80.5024 12.7902C82.2903 12.7902 83.5248 13.616 83.7483 14.9392H86.0683C85.9299 12.5216 83.6525 10.8203 80.5344 10.8203C77.1821 10.8203 74.9472 12.5216 74.9472 15.0785C74.9472 17.1877 76.2136 18.4413 78.9912 19.0482L80.9707 19.4959C83.0033 19.9436 83.8973 20.6002 83.8973 21.6946C83.8973 22.9681 82.4925 23.8934 80.5769 23.8934C78.523 23.8934 77.0969 23.0278 76.8947 21.6648H74.5322Z" fill="white"/>
<path d="M51.6642 14.8989C50.1446 14.8989 48.8304 15.6093 48.1527 16.7995H47.9884V15.0717H45.863V28.9998H48.0706V23.9412H48.2451C48.8304 25.0451 50.0933 25.6978 51.6848 25.6978C54.5084 25.6978 56.3052 23.6148 56.3052 20.2936C56.3052 16.9723 54.5084 14.8989 51.6642 14.8989ZM51.0379 23.8452C49.1897 23.8452 48.0295 22.4821 48.0295 20.3032C48.0295 18.1146 49.1897 16.7515 51.0482 16.7515C52.9169 16.7515 54.0361 18.0858 54.0361 20.2936C54.0361 22.5109 52.9169 23.8452 51.0379 23.8452Z" fill="white"/>
<path d="M64.0298 14.8989C62.5102 14.8989 61.1959 15.6093 60.5183 16.7995H60.354V15.0717H58.2286V28.9998H60.4361V23.9412H60.6107C61.1959 25.0451 62.4588 25.6978 64.0503 25.6978C66.8739 25.6978 68.6708 23.6148 68.6708 20.2936C68.6708 16.9723 66.8739 14.8989 64.0298 14.8989ZM63.4035 23.8452C61.5553 23.8452 60.395 22.4821 60.395 20.3032C60.395 18.1146 61.5553 16.7515 63.4137 16.7515C65.2825 16.7515 66.4016 18.0858 66.4016 20.2936C66.4016 22.5109 65.2825 23.8452 63.4035 23.8452Z" fill="white"/>
<path d="M41.9023 25.525H44.4351L38.8906 11.1685H36.3258L30.7812 25.525H33.2289L34.6443 21.7145H40.4975L41.9023 25.525ZM37.4858 13.7752H37.6667L39.8909 19.8441H35.2509L37.4858 13.7752Z" fill="white"/>
<path d="M32.2656 0.340763V7.26642H34.9404C37.1479 7.26642 38.4262 5.99455 38.4262 3.78199C38.4262 1.60303 37.1376 0.340763 34.9404 0.340763H32.2656ZM33.4156 1.31986H34.812C36.347 1.31986 37.2557 2.23176 37.2557 3.79639C37.2557 5.38502 36.3624 6.28732 34.812 6.28732H33.4156V1.31986Z" fill="white"/>
<path d="M42.3413 7.36721C43.9738 7.36721 44.9749 6.34492 44.9749 4.6507C44.9749 2.96608 43.9687 1.93899 42.3413 1.93899C40.7087 1.93899 39.7025 2.96608 39.7025 4.6507C39.7025 6.34492 40.7036 7.36721 42.3413 7.36721ZM42.3413 6.4505C41.3813 6.4505 40.8422 5.79298 40.8422 4.6507C40.8422 3.51802 41.3813 2.85569 42.3413 2.85569C43.2962 2.85569 43.8404 3.51802 43.8404 4.6507C43.8404 5.78818 43.2962 6.4505 42.3413 6.4505Z" fill="white"/>
<path d="M53.5002 2.03978H52.3964L51.4005 6.02815H51.3132L50.1632 2.03978H49.1056L47.9556 6.02815H47.8735L46.8724 2.03978H45.7532L47.2934 7.26642H48.428L49.5779 3.41723H49.6652L50.8203 7.26642H51.9652L53.5002 2.03978Z" fill="white"/>
<path d="M54.7713 7.26642H55.8751V4.20915C55.8751 3.39323 56.3936 2.88449 57.2099 2.88449C58.0262 2.88449 58.4163 3.30204 58.4163 4.14195V7.26642H59.5201V3.88278C59.5201 2.63972 58.8322 1.93899 57.5847 1.93899C56.7427 1.93899 56.1883 2.28935 55.9162 2.87009H55.834V2.03978H54.7713V7.26642Z" fill="white"/>
<path d="M61.2584 7.26642H62.3622V0H61.2584V7.26642Z" fill="white"/>
<path d="M66.5134 7.36721C68.146 7.36721 69.1471 6.34492 69.1471 4.6507C69.1471 2.96608 68.1409 1.93899 66.5134 1.93899C64.8809 1.93899 63.8746 2.96608 63.8746 4.6507C63.8746 6.34492 64.8757 7.36721 66.5134 7.36721ZM66.5134 6.4505C65.5534 6.4505 65.0144 5.79298 65.0144 4.6507C65.0144 3.51802 65.5534 2.85569 66.5134 2.85569C67.4683 2.85569 68.0125 3.51802 68.0125 4.6507C68.0125 5.78818 67.4683 6.4505 66.5134 6.4505Z" fill="white"/>
<path d="M72.4358 6.4841C71.8352 6.4841 71.3988 6.21053 71.3988 5.74018C71.3988 5.27943 71.7479 5.03466 72.518 4.98666L73.8836 4.90507V5.34182C73.8836 5.98975 73.2675 6.4841 72.4358 6.4841ZM72.1535 7.35281C72.8876 7.35281 73.4985 7.05524 73.8322 6.5321H73.9195V7.26642H74.9822V3.6956C74.9822 2.59172 74.1916 1.93899 72.7901 1.93899C71.522 1.93899 70.6184 2.51493 70.5055 3.41243H71.5733C71.6966 3.04287 72.1227 2.83169 72.7387 2.83169C73.4934 2.83169 73.8836 3.14366 73.8836 3.6956V4.14675L72.3691 4.22834C71.0394 4.30514 70.2899 4.84748 70.2899 5.78818C70.2899 6.74327 71.0754 7.35281 72.1535 7.35281Z" fill="white"/>
<path d="M78.7278 7.35281C79.4979 7.35281 80.1499 7.01204 80.4836 6.44091H80.5709V7.26642H81.6285V0H80.5247V2.87009H80.4426C80.1397 2.29415 79.4928 1.95339 78.7278 1.95339C77.316 1.95339 76.4074 2.99968 76.4074 4.6507C76.4074 6.30652 77.3058 7.35281 78.7278 7.35281ZM79.041 2.87969C79.9651 2.87969 80.5452 3.56602 80.5452 4.6555C80.5452 5.74978 79.9702 6.42651 79.041 6.42651C78.1067 6.42651 77.5471 5.75938 77.5471 4.6507C77.5471 3.55162 78.1118 2.87969 79.041 2.87969Z" fill="white"/>
<path d="M88.7861 7.36721C90.4186 7.36721 91.4197 6.34492 91.4197 4.6507C91.4197 2.96608 90.4135 1.93899 88.7861 1.93899C87.1535 1.93899 86.1473 2.96608 86.1473 4.6507C86.1473 6.34492 87.1484 7.36721 88.7861 7.36721ZM88.7861 6.4505C87.826 6.4505 87.287 5.79298 87.287 4.6507C87.287 3.51802 87.826 2.85569 88.7861 2.85569C89.741 2.85569 90.2851 3.51802 90.2851 4.6507C90.2851 5.78818 89.741 6.4505 88.7861 6.4505Z" fill="white"/>
<path d="M92.8808 7.26642H93.9846V4.20915C93.9846 3.39323 94.5031 2.88449 95.3194 2.88449C96.1357 2.88449 96.5258 3.30204 96.5258 4.14195V7.26642H97.6296V3.88278C97.6296 2.63972 96.9417 1.93899 95.6941 1.93899C94.8522 1.93899 94.2977 2.28935 94.0257 2.87009H93.9435V2.03978H92.8808V7.26642Z" fill="white"/>
<path d="M102.713 0.73912V2.06378H101.825V2.93248H102.713V5.88417C102.713 6.89206 103.201 7.29521 104.428 7.29521C104.643 7.29521 104.849 7.27122 105.028 7.24242V6.38331C104.874 6.39771 104.777 6.40731 104.608 6.40731C104.058 6.40731 103.817 6.16734 103.817 5.62019V2.93248H105.028V2.06378H103.817V0.73912H102.713Z" fill="white"/>
<path d="M106.51 7.26642H107.614V4.21395C107.614 3.42203 108.117 2.88929 109.021 2.88929C109.801 2.88929 110.217 3.31164 110.217 4.14675V7.26642H111.321V3.89238C111.321 2.64931 110.586 1.94379 109.395 1.94379C108.553 1.94379 107.963 2.29415 107.691 2.87969H107.604V0H106.51V7.26642Z" fill="white"/>
<path d="M115.302 2.8173C116.119 2.8173 116.653 3.35004 116.678 4.17075H113.855C113.916 3.35484 114.486 2.8173 115.302 2.8173ZM116.673 5.85537C116.468 6.26333 116.011 6.4889 115.343 6.4889C114.46 6.4889 113.891 5.90816 113.855 4.99146V4.93387H117.802V4.57391C117.802 2.93248 116.863 1.93899 115.307 1.93899C113.731 1.93899 112.73 2.99968 112.73 4.6699C112.73 6.34012 113.711 7.36721 115.313 7.36721C116.591 7.36721 117.484 6.79127 117.736 5.85537H116.673Z" fill="white"/>
<path d="M18.8036 13.745C18.8304 11.8011 19.947 9.96171 21.7185 8.94355C20.601 7.45143 18.7291 6.50539 16.7816 6.44842C14.7045 6.2446 12.6908 7.6104 11.6323 7.6104C10.5534 7.6104 8.9237 6.46866 7.16879 6.50242C4.88136 6.5715 2.74889 7.78732 1.63601 9.6569C-0.756258 13.529 1.02816 19.2197 3.31975 22.3496C4.46628 23.8822 5.80624 25.5942 7.55956 25.5335C9.27529 25.4669 9.91608 24.5107 11.9871 24.5107C14.0389 24.5107 14.6401 25.5335 16.429 25.4949C18.2701 25.4669 19.43 23.9554 20.5363 22.4083C21.3601 21.3162 21.994 20.1093 22.4145 18.8321C20.2509 17.9766 18.8061 15.9411 18.8036 13.745Z" fill="white"/>
<path d="M15.4246 4.39004C16.4284 3.26348 16.923 1.81547 16.8032 0.353516C15.2696 0.504102 13.853 1.18933 12.8356 2.27268C11.8408 3.33116 11.323 4.75369 11.4209 6.15977C12.9551 6.17453 14.4633 5.50788 15.4246 4.39004Z" fill="white"/>
</svg>
