<svg width="118" height="30" viewBox="0 0 118 30" fill="none" xmlns="http://www.w3.org/2000/svg">
<path d="M59.2398 16.8646C56.8643 16.8646 54.9281 18.7711 54.9281 21.397C54.9281 24.0069 56.8643 25.9294 59.2398 25.9294C61.6163 25.9294 63.5525 24.0069 63.5525 21.397C63.5515 18.7711 61.6153 16.8646 59.2398 16.8646ZM59.2398 24.1454C57.9379 24.1454 56.8158 23.0126 56.8158 21.398C56.8158 19.7665 57.939 18.6507 59.2398 18.6507C60.5417 18.6507 61.6638 19.7665 61.6638 21.398C61.6638 23.0115 60.5417 24.1454 59.2398 24.1454ZM49.8327 16.8646C47.4572 16.8646 45.5211 18.7711 45.5211 21.397C45.5211 24.0069 47.4572 25.9294 49.8327 25.9294C52.2092 25.9294 54.1454 24.0069 54.1454 21.397C54.1454 18.7711 52.2092 16.8646 49.8327 16.8646ZM49.8327 24.1454C48.5308 24.1454 47.4087 23.0126 47.4087 21.398C47.4087 19.7665 48.5318 18.6507 49.8327 18.6507C51.1346 18.6507 52.2567 19.7665 52.2567 21.398C52.2577 23.0115 51.1346 24.1454 49.8327 24.1454ZM38.644 18.2564V20.1789H43.0052C42.8749 21.2606 42.5335 22.0503 42.0123 22.5991C41.378 23.2683 40.3852 24.0069 38.644 24.0069C35.9594 24.0069 33.8607 21.7231 33.8607 18.8905C33.8607 16.0579 35.9594 13.7741 38.644 13.7741C40.0923 13.7741 41.1498 14.3751 41.9305 15.1478L43.2162 13.7911C42.1254 12.6924 40.6781 11.8516 38.644 11.8516C34.9666 11.8516 31.875 15.0103 31.875 18.8905C31.875 22.7707 34.9666 25.9294 38.644 25.9294C40.6286 25.9294 42.1265 25.242 43.297 23.9546C44.501 22.6843 44.8757 20.8982 44.8757 19.4564C44.8757 19.0109 44.8433 18.5985 44.7777 18.2553H38.644V18.2564ZM84.4049 19.7494C84.0473 18.737 82.9565 16.8646 80.7275 16.8646C78.5146 16.8646 76.6754 18.7018 76.6754 21.397C76.6754 23.9376 78.4984 25.9294 80.9386 25.9294C82.9071 25.9294 84.0463 24.6591 84.519 23.9205L83.0545 22.89C82.5667 23.6456 81.8991 24.1433 80.9386 24.1433C79.9791 24.1433 79.2953 23.6797 78.856 22.7696L84.5998 20.2631L84.4049 19.7494ZM78.5469 21.2606C78.4984 19.5086 79.8326 18.6166 80.7931 18.6166C81.5415 18.6166 82.1758 19.012 82.3879 19.5778L78.5469 21.2606ZM73.8777 25.6555H75.7644V12.3333H73.8777V25.6555ZM70.7851 17.8781H70.7204C70.2973 17.3452 69.4832 16.8646 68.4591 16.8646C66.3108 16.8646 64.3423 18.8564 64.3423 21.4151C64.3423 23.9557 66.3108 25.9304 68.4591 25.9304C69.4842 25.9304 70.2973 25.4498 70.7204 24.901H70.7851V25.5532C70.7851 27.2871 69.9064 28.2142 68.4914 28.2142C67.3359 28.2142 66.6199 27.3393 66.327 26.6008L64.6837 27.3222C65.1554 28.5233 66.4078 30.0003 68.4914 30.0003C70.7043 30.0003 72.5758 28.6266 72.5758 25.2782V17.1406H70.7861V17.8781H70.7851ZM68.6217 24.1454C67.3198 24.1454 66.23 22.9945 66.23 21.4151C66.23 19.8176 67.3198 18.6507 68.6217 18.6507C69.9064 18.6507 70.9154 19.8176 70.9154 21.4151C70.9154 22.9945 69.9064 24.1454 68.6217 24.1454ZM93.2464 12.3333H88.7307V25.6555H90.6143V20.6084H93.2454C95.334 20.6084 97.3884 19.013 97.3884 16.4713C97.3884 13.9297 95.335 12.3333 93.2464 12.3333ZM93.2949 18.7541H90.6143V14.1876H93.2949C94.7038 14.1876 95.5037 15.4184 95.5037 16.4713C95.5037 17.5029 94.7038 18.7541 93.2949 18.7541ZM104.942 16.8411C103.578 16.8411 102.165 17.4752 101.58 18.8809L103.252 19.6173C103.61 18.8809 104.277 18.64 104.974 18.64C105.949 18.64 106.94 19.2571 106.956 20.3537V20.4911C106.615 20.2855 105.883 19.9775 104.991 19.9775C103.188 19.9775 101.352 21.0229 101.352 22.9763C101.352 24.7592 102.83 25.907 104.487 25.907C105.753 25.907 106.452 25.307 106.89 24.6037H106.955V25.632H108.775V20.5242C108.776 18.1605 107.102 16.8411 104.942 16.8411ZM104.714 24.1422C104.098 24.1422 103.236 23.8161 103.236 23.0104C103.236 21.982 104.309 21.5877 105.235 21.5877C106.062 21.5877 106.453 21.7764 106.956 22.0332C106.81 23.2683 105.803 24.1422 104.714 24.1422ZM115.403 17.1321L113.242 22.9081H113.178L110.935 17.1321H108.905L112.268 25.2047L110.351 29.6955H112.316L117.498 17.1321H115.403ZM98.4287 25.6555H100.312V12.3333H98.4287V25.6555Z" fill="white"/>
<path d="M38.318 4.59986C38.318 5.49292 38.0676 6.20373 37.5656 6.73445C36.996 7.36534 36.2526 7.68079 35.3396 7.68079C34.4649 7.68079 33.7205 7.36108 33.1095 6.72166C32.4974 6.08118 32.1914 5.2883 32.1914 4.34197C32.1914 3.39456 32.4974 2.60169 33.1095 1.96227C33.7205 1.32179 34.4649 1.00208 35.3396 1.00208C35.7739 1.00208 36.189 1.0916 36.5829 1.26957C36.9778 1.44861 37.2939 1.68626 37.5302 1.98359L36.998 2.54627C36.597 2.04007 36.0445 1.7875 35.3385 1.7875C34.7002 1.7875 34.1488 2.02408 33.6832 2.49725C33.2176 2.97042 32.9853 3.58532 32.9853 4.3409C32.9853 5.09648 33.2176 5.71138 33.6832 6.18455C34.1488 6.65772 34.7002 6.8943 35.3385 6.8943C36.0152 6.8943 36.5798 6.65665 37.0313 6.18029C37.3242 5.87017 37.4939 5.43856 37.5393 4.88547H35.3385V4.11711H38.2746C38.3049 4.28442 38.318 4.44534 38.318 4.59986Z" fill="white"/>
<path d="M42.9742 1.9293H40.2149V3.95625H42.7035V4.72461H40.2149V6.75156H42.9742V7.53804H39.4362V1.14388H42.9742V1.9293Z" fill="white"/>
<path d="M46.2576 7.53804H45.4789V1.9293H43.7861V1.14388H47.9503V1.9293H46.2576V7.53804Z" fill="white"/>
<path d="M50.9631 7.53804V1.14388H51.7418V7.53804H50.9631Z" fill="white"/>
<path d="M55.1952 7.53804H54.4165V1.9293H52.7237V1.14388H56.8879V1.9293H55.1952V7.53804Z" fill="white"/>
<path d="M64.7707 6.71212C64.1748 7.35793 63.4345 7.68084 62.5487 7.68084C61.6629 7.68084 60.9226 7.35793 60.3277 6.71212C59.7318 6.06631 59.4349 5.27556 59.4349 4.34095C59.4349 3.40634 59.7318 2.61559 60.3277 1.96978C60.9226 1.32397 61.6629 1 62.5487 1C63.4294 1 64.1688 1.32504 64.7667 1.97404C65.3646 2.62305 65.6635 3.41167 65.6635 4.34095C65.6635 5.27556 65.3656 6.06631 64.7707 6.71212ZM60.9024 6.17608C61.3509 6.65564 61.8993 6.89435 62.5487 6.89435C63.1981 6.89435 63.7476 6.65457 64.195 6.17608C64.6434 5.69651 64.8687 5.08481 64.8687 4.34095C64.8687 3.5971 64.6434 2.98539 64.195 2.50583C63.7476 2.02626 63.1981 1.78755 62.5487 1.78755C61.8993 1.78755 61.3509 2.02733 60.9024 2.50583C60.455 2.98539 60.2298 3.5971 60.2298 4.34095C60.2298 5.08481 60.455 5.69651 60.9024 6.17608Z" fill="white"/>
<path d="M66.7564 7.53804V1.14388H67.7038L70.6489 6.11747H70.6822L70.6489 4.88553V1.14388H71.4276V7.53804H70.6146L67.5331 2.32254H67.4997L67.5331 3.55448V7.53804H66.7564Z" fill="white"/>
<path d="M38.318 4.59986C38.318 5.49292 38.0676 6.20373 37.5656 6.73445C36.996 7.36534 36.2526 7.68079 35.3396 7.68079C34.4649 7.68079 33.7205 7.36108 33.1095 6.72166C32.4974 6.08118 32.1914 5.2883 32.1914 4.34197C32.1914 3.39456 32.4974 2.60169 33.1095 1.96227C33.7205 1.32179 34.4649 1.00208 35.3396 1.00208C35.7739 1.00208 36.189 1.0916 36.5829 1.26957C36.9778 1.44861 37.2939 1.68626 37.5302 1.98359L36.998 2.54627C36.597 2.04007 36.0445 1.7875 35.3385 1.7875C34.7002 1.7875 34.1488 2.02408 33.6832 2.49725C33.2176 2.97042 32.9853 3.58532 32.9853 4.3409C32.9853 5.09648 33.2176 5.71138 33.6832 6.18455C34.1488 6.65772 34.7002 6.8943 35.3385 6.8943C36.0152 6.8943 36.5798 6.65665 37.0313 6.18029C37.3242 5.87017 37.4939 5.43856 37.5393 4.88547H35.3385V4.11711H38.2746C38.3049 4.28442 38.318 4.44534 38.318 4.59986Z" stroke="white" stroke-width="0.2" stroke-miterlimit="10"/>
<path d="M42.9742 1.9293H40.2149V3.95625H42.7035V4.72461H40.2149V6.75156H42.9742V7.53804H39.4362V1.14388H42.9742V1.9293Z" stroke="white" stroke-width="0.2" stroke-miterlimit="10"/>
<path d="M46.2576 7.53804H45.4789V1.9293H43.7861V1.14388H47.9503V1.9293H46.2576V7.53804Z" stroke="white" stroke-width="0.2" stroke-miterlimit="10"/>
<path d="M50.9631 7.53804V1.14388H51.7418V7.53804H50.9631Z" stroke="white" stroke-width="0.2" stroke-miterlimit="10"/>
<path d="M55.1952 7.53804H54.4165V1.9293H52.7237V1.14388H56.8879V1.9293H55.1952V7.53804Z" stroke="white" stroke-width="0.2" stroke-miterlimit="10"/>
<path d="M64.7707 6.71212C64.1748 7.35793 63.4345 7.68084 62.5487 7.68084C61.6629 7.68084 60.9226 7.35793 60.3277 6.71212C59.7318 6.06631 59.4349 5.27556 59.4349 4.34095C59.4349 3.40634 59.7318 2.61559 60.3277 1.96978C60.9226 1.32397 61.6629 1 62.5487 1C63.4294 1 64.1688 1.32504 64.7667 1.97404C65.3646 2.62305 65.6635 3.41167 65.6635 4.34095C65.6635 5.27556 65.3656 6.06631 64.7707 6.71212ZM60.9024 6.17608C61.3509 6.65564 61.8993 6.89435 62.5487 6.89435C63.1981 6.89435 63.7476 6.65457 64.195 6.17608C64.6434 5.69651 64.8687 5.08481 64.8687 4.34095C64.8687 3.5971 64.6434 2.98539 64.195 2.50583C63.7476 2.02626 63.1981 1.78755 62.5487 1.78755C61.8993 1.78755 61.3509 2.02733 60.9024 2.50583C60.455 2.98539 60.2298 3.5971 60.2298 4.34095C60.2298 5.08481 60.455 5.69651 60.9024 6.17608Z" stroke="white" stroke-width="0.2" stroke-miterlimit="10"/>
<path d="M66.7564 7.53804V1.14388H67.7038L70.6489 6.11747H70.6822L70.6489 4.88553V1.14388H71.4276V7.53804H70.6146L67.5331 2.32254H67.4997L67.5331 3.55448V7.53804H66.7564Z" stroke="white" stroke-width="0.2" stroke-miterlimit="10"/>
<g filter="url(#filter0_ii_259_33346)">
<path d="M0.967629 1.71647C0.67372 2.0447 0.5 2.5541 0.5 3.21377V26.7826C0.5 27.4434 0.67372 27.9517 0.967629 28.28L1.04237 28.3567L13.5552 15.1538V14.9982V14.8426L1.04237 1.63867L0.967629 1.71647Z" fill="url(#paint0_linear_259_33346)"/>
<path d="M17.725 19.5543L13.5547 15.1519V14.9964V14.8408L17.726 10.4395L17.8199 10.4959L22.7618 13.4586C24.1728 14.3047 24.1728 15.6891 22.7618 16.5363L17.8199 19.4989L17.725 19.5543Z" fill="url(#paint1_linear_259_33346)"/>
<g filter="url(#filter1_i_259_33346)">
<path d="M17.8215 19.4976L13.5553 14.9961L0.968751 28.2778C1.43335 28.7979 2.20195 28.8618 3.06752 28.3439L17.8215 19.4976Z" fill="url(#paint2_linear_259_33346)"/>
</g>
<path d="M17.8215 10.4964L3.06752 1.65112C2.20195 1.13213 1.43335 1.19714 0.968751 1.7172L13.5563 14.9989L17.8215 10.4964Z" fill="url(#paint3_linear_259_33346)"/>
</g>
<defs>
<filter id="filter0_ii_259_33346" x="0.5" y="1.29297" width="23.3203" height="27.4082" filterUnits="userSpaceOnUse" color-interpolation-filters="sRGB">
<feFlood flood-opacity="0" result="BackgroundImageFix"/>
<feBlend mode="normal" in="SourceGraphic" in2="BackgroundImageFix" result="shape"/>
<feColorMatrix in="SourceAlpha" type="matrix" values="0 0 0 0 0 0 0 0 0 0 0 0 0 0 0 0 0 0 127 0" result="hardAlpha"/>
<feOffset dy="-0.15"/>
<feComposite in2="hardAlpha" operator="arithmetic" k2="-1" k3="1"/>
<feColorMatrix type="matrix" values="0 0 0 0 0 0 0 0 0 0 0 0 0 0 0 0 0 0 0.12 0"/>
<feBlend mode="normal" in2="shape" result="effect1_innerShadow_259_33346"/>
<feColorMatrix in="SourceAlpha" type="matrix" values="0 0 0 0 0 0 0 0 0 0 0 0 0 0 0 0 0 0 127 0" result="hardAlpha"/>
<feOffset dy="0.15"/>
<feComposite in2="hardAlpha" operator="arithmetic" k2="-1" k3="1"/>
<feColorMatrix type="matrix" values="0 0 0 0 1 0 0 0 0 1 0 0 0 0 1 0 0 0 0.25 0"/>
<feBlend mode="normal" in2="effect1_innerShadow_259_33346" result="effect2_innerShadow_259_33346"/>
</filter>
<filter id="filter1_i_259_33346" x="0.96875" y="14.9961" width="16.8516" height="13.7051" filterUnits="userSpaceOnUse" color-interpolation-filters="sRGB">
<feFlood flood-opacity="0" result="BackgroundImageFix"/>
<feBlend mode="normal" in="SourceGraphic" in2="BackgroundImageFix" result="shape"/>
<feColorMatrix in="SourceAlpha" type="matrix" values="0 0 0 0 0 0 0 0 0 0 0 0 0 0 0 0 0 0 127 0" result="hardAlpha"/>
<feOffset dy="-0.15"/>
<feComposite in2="hardAlpha" operator="arithmetic" k2="-1" k3="1"/>
<feColorMatrix type="matrix" values="0 0 0 0 0 0 0 0 0 0 0 0 0 0 0 0 0 0 0.08 0"/>
<feBlend mode="normal" in2="shape" result="effect1_innerShadow_259_33346"/>
</filter>
<linearGradient id="paint0_linear_259_33346" x1="12.446" y1="2.96439" x2="-5.41271" y2="19.8898" gradientUnits="userSpaceOnUse">
<stop stop-color="#00A0FF"/>
<stop offset="0.0066" stop-color="#00A1FF"/>
<stop offset="0.2601" stop-color="#00BEFF"/>
<stop offset="0.5122" stop-color="#00D2FF"/>
<stop offset="0.7604" stop-color="#00DFFF"/>
<stop offset="1" stop-color="#00E3FF"/>
</linearGradient>
<linearGradient id="paint1_linear_259_33346" x1="24.5985" y1="14.9964" x2="0.160729" y2="14.9964" gradientUnits="userSpaceOnUse">
<stop stop-color="#FFE000"/>
<stop offset="0.4087" stop-color="#FFBD00"/>
<stop offset="0.7754" stop-color="#FFA500"/>
<stop offset="1" stop-color="#FF9C00"/>
</linearGradient>
<linearGradient id="paint2_linear_259_33346" x1="15.5047" y1="17.4407" x2="-8.71398" y2="40.3936" gradientUnits="userSpaceOnUse">
<stop stop-color="#FF3A44"/>
<stop offset="1" stop-color="#C31162"/>
</linearGradient>
<linearGradient id="paint3_linear_259_33346" x1="-2.20122" y1="-6.12866" x2="8.61309" y2="4.12045" gradientUnits="userSpaceOnUse">
<stop stop-color="#32A071"/>
<stop offset="0.0685" stop-color="#2DA771"/>
<stop offset="0.4762" stop-color="#15CF74"/>
<stop offset="0.8009" stop-color="#06E775"/>
<stop offset="1" stop-color="#00F076"/>
</linearGradient>
</defs>
</svg>
